<svg width="162" height="162" viewBox="0 0 162 162" fill="none" xmlns="http://www.w3.org/2000/svg">
<path d="M100.813 110.394C95.1905 113.771 89.7087 117.009 84.2899 120.358C82.1438 121.684 80.2432 121.765 78.0173 120.418C63.2338 111.476 48.4055 102.613 33.5693 93.7656C31.1464 92.3206 30.0673 90.3283 30.0828 87.3948C30.1601 72.7559 30.1268 58.1163 30.1572 43.477C30.1599 42.1715 29.8943 40.7744 30.9915 39.433C33.7061 40.739 36.2717 42.3377 38.7087 44.1571C39.9434 45.0789 39.7348 46.5407 39.7322 47.8746C39.7113 58.7339 40.3365 69.5964 39.7095 80.4508C39.4921 84.2153 40.8526 86.6267 44.0869 88.4668C54.3907 94.3289 64.6632 100.265 74.5586 106.859C78.7828 109.675 82.917 109.846 87.1866 107.064C97.5845 100.288 108.312 94.0992 119.044 87.9264C121.457 86.5388 122.449 84.7299 122.424 81.8717C122.325 70.7359 122.437 59.5981 122.346 48.4622C122.322 45.4966 123.239 43.5005 125.972 42.354C127.706 41.6269 129.298 40.5376 130.92 39.6298C132.141 40.7189 132.011 42.0185 132.013 43.2416C132.028 58.0606 131.994 72.8798 132.054 87.6985C132.065 90.5417 130.957 92.3844 128.602 93.7745C119.365 99.2276 110.182 104.782 100.813 110.394Z" fill="#0A9786"/>
<path d="M46.6402 43.1148C46.5876 40.8976 47.7078 39.746 49.2143 38.8419C58.8701 33.0473 68.5422 27.2815 78.1599 21.4193C80.2989 20.1155 82.082 20.2959 84.174 21.58C93.5501 27.3357 102.986 32.9876 112.432 38.6182C114.412 39.7985 115.498 41.2998 115.493 43.7735C115.469 55.4472 115.542 67.1211 115.551 78.7949C115.553 81.4888 114.675 82.2339 112.013 82.0905C110.722 82.021 109.425 81.9783 108.135 82.0324C105.435 82.1455 104.76 81.5567 104.755 78.6548C104.74 69.1302 104.699 59.6046 104.823 50.0816C104.856 47.5025 103.972 45.8928 101.841 44.6583C95.8014 41.1603 89.8002 37.5878 83.8472 33.9334C81.9072 32.7425 80.2413 32.7257 78.3029 33.9223C72.4341 37.5448 66.5189 41.0882 60.5719 44.5704C58.3301 45.883 57.5416 47.7732 57.5717 50.3432C57.6771 59.327 57.7224 68.3118 57.7412 77.2963C57.7499 81.4229 56.9544 82.1482 52.9746 81.9691C52.2837 81.938 51.5918 81.9349 50.9005 81.9139C47.5277 81.811 46.6626 80.9254 46.6542 77.3243C46.628 66.0027 46.6384 54.681 46.6402 43.1148Z" fill="#0A9786"/>
<path d="M89.3734 5.10954C103.641 13.6283 117.742 22.0514 132.345 30.7741C129.334 33.2498 126.857 34.8308 124.17 35.9794C122.722 36.5983 121.329 35.8286 120.015 35.0393C108.272 27.9841 96.4851 21.0083 84.7872 13.8742C82.2786 12.3442 80.2386 12.1383 77.6268 13.7509C66.8606 20.398 55.9493 26.7905 45.1405 33.3639C38.4614 37.4258 37.5463 36.8848 30.6366 31.0275C30.8249 29.9865 31.7485 29.7358 32.4584 29.3106C47.5787 20.2552 62.7319 11.2586 77.8136 2.13433C80.2055 0.687251 82.2205 0.537552 84.4929 2.19325C85.9715 3.27066 87.6291 4.08281 89.3734 5.10954Z" fill="#0A9786"/>
<path d="M136.285 155.279C134.951 157.083 135.079 159.994 132.059 159.964C130.428 159.947 129.274 159.546 128.541 157.886C127.319 155.12 125.942 152.429 124.12 149.73C124.12 152.593 124.071 155.459 124.137 158.321C124.183 160.3 123.326 161.001 121.478 161C119.515 160.999 119.256 159.877 119.267 158.227C119.308 152.126 119.26 146.026 119.302 139.926C119.309 138.863 118.861 137.343 120.548 137.164C122.118 136.996 123.833 136.524 124.788 138.645C126.651 142.787 128.608 146.884 130.547 150.989C130.843 151.617 130.996 152.364 131.973 152.948C133.978 148.802 135.972 144.677 137.968 140.553C138.356 139.752 138.704 138.924 139.154 138.163C140.15 136.481 141.763 137.002 143.134 137.22C144.444 137.428 144.049 138.744 144.052 139.664C144.067 144.06 144.001 148.456 144.049 152.851C144.067 154.542 143.506 155.274 141.798 155.258C140.14 155.242 139.408 154.604 139.508 152.873C139.569 151.811 139.519 150.742 139.131 149.523C138.211 151.382 137.292 153.24 136.285 155.279Z" fill="#0A9786"/>
<path d="M58.7789 146.948C58.1315 143.967 56.6093 142.018 53.9188 141.312C52.3087 140.89 50.8516 141.122 51.1379 143.453C51.4104 145.671 50.3001 146.208 48.4408 146.267C46.2973 146.336 46.0737 145.039 46.1428 143.321C46.1969 141.977 46.2168 140.623 46.1279 139.283C46.02 137.656 46.2481 136.264 48.0295 135.655C46.3944 133.004 44.6751 131.123 41.4716 131.463C39.2103 131.703 37.8619 130.343 37.6771 128.009C37.3371 123.714 37.2923 119.408 37.6947 115.11C37.9058 112.856 39.1897 111.766 41.3303 111.762C46.6856 111.754 52.0419 111.706 57.3958 111.8C59.9658 111.844 61.3561 113.347 61.4215 116.068C61.5122 119.836 61.5183 123.61 61.42 127.378C61.347 130.179 60.0216 131.658 57.3561 131.44C54.1059 131.174 52.4804 133.015 50.9704 135.696C52.2143 136.407 53.5027 136.401 54.7333 136.651C61.9031 138.106 64.1402 143.356 63.9216 149.271C63.6936 155.439 59.0443 159.963 53.0286 160.045C44.7889 160.156 46.3947 161.271 46.1085 153.111C46.0235 150.686 46.9188 149.894 49.1379 150.094C50.5283 150.22 51.0793 150.771 51.1541 152.245C51.2906 154.935 52.0054 155.411 54.5362 154.833C57.8102 154.085 59.4002 151.245 58.7789 146.948ZM54.2947 130.495C54.9759 130.398 55.6544 130.258 56.3388 130.212C59.5382 130.002 60.0933 129.427 60.103 126.167C60.1127 122.937 60.0893 119.708 60.1012 116.478C60.1093 114.286 59.1707 113.158 56.9752 113.162C52.0551 113.168 47.1346 113.128 42.2149 113.066C39.8613 113.036 38.6811 114.145 38.6941 116.622C38.7114 119.941 38.7079 123.261 38.6885 126.58C38.6745 128.972 39.6249 130.37 42.0894 130.193C44.5683 130.015 46.4049 131.076 47.8272 133.141C48.2547 133.761 48.6202 134.569 49.5942 134.685C51.1976 133.564 51.9154 131.352 54.2947 130.495Z" fill="#0A9786"/>
<path d="M20.7226 143.74C20.7245 142.127 20.6577 140.777 20.7497 139.438C20.8287 138.289 20.1995 136.673 21.9213 136.312C23.5313 135.973 25.1555 135.902 26.3106 137.658C28.5981 141.136 30.9772 144.549 33.3318 147.978C33.8083 148.672 34.3441 149.322 35.2743 150.549C35.2743 146.294 35.326 142.74 35.2531 139.189C35.2148 137.322 35.4995 136.109 37.7286 136.109C39.8736 136.108 40.2983 137.129 40.27 139.091C40.1846 145.008 40.2765 150.927 40.2079 156.844C40.1949 157.965 40.9198 159.747 39.251 160.032C37.5063 160.329 35.5807 160.752 34.2374 158.489C31.9313 154.602 29.3283 150.906 26.8437 147.135C26.62 146.795 26.3508 146.488 25.6539 145.583C25.6539 148.288 25.614 150.316 25.6653 152.341C25.7146 154.287 24.7196 154.73 23.0524 154.714C21.4158 154.698 20.6898 154.095 20.7285 152.347C20.79 149.569 20.7309 146.788 20.7226 143.74Z" fill="#0A9786"/>
<path d="M115.63 150.053C114.799 157.185 110.045 161.359 104.306 160.183C99.2999 159.157 95.7128 154.099 96.1862 148.734C96.7194 142.691 100.737 138.353 105.802 138.351C110.88 138.348 114.869 142.393 115.542 148.237C115.603 148.768 115.624 149.303 115.63 150.053ZM110.881 149.396C110.603 148.555 110.458 147.628 110.021 146.889C108.931 145.048 107.27 144.144 105.188 144.505C103.124 144.863 101.854 146.267 101.245 148.318C100.619 150.426 101.535 152.011 103.004 153.274C105.909 155.77 109.396 154.193 110.881 149.396Z" fill="#0A9786"/>
<path d="M158.421 138.416C158.773 140.937 157.998 142.1 155.63 141.789C154.867 141.689 154.077 141.772 153.301 141.807C151.83 141.873 151.792 142.969 151.774 144.106C151.754 145.289 151.897 146.297 153.364 146.311C155.092 146.328 156.819 146.383 158.546 146.379C160.074 146.375 160.986 146.906 161 148.709C161.014 150.526 160.301 151.358 158.545 151.329C156.905 151.302 155.262 151.424 153.622 151.391C151.85 151.355 151.784 152.51 151.765 153.891C151.744 155.361 152.276 156.082 153.735 156C154.51 155.956 155.293 156.042 156.066 155.979C157.836 155.836 158.515 156.619 158.53 158.484C158.546 160.416 157.717 161.018 156.022 160.97C153.778 160.906 151.531 160.911 149.285 160.934C147.699 160.95 146.909 160.302 146.925 158.541C146.983 152.167 146.988 145.792 146.974 139.418C146.97 137.727 147.62 136.987 149.302 137.051C151.631 137.14 153.966 137.047 156.298 137.067C157.148 137.074 158.088 136.993 158.421 138.416Z" fill="#0A9786"/>
<path d="M4.09608 137.513C7.6452 135.641 11.3604 136.22 13.4238 138.808C15.3064 141.168 15.1247 144.455 12.8629 147.733C11.2595 150.058 9.58948 152.332 7.82711 154.8C8.95167 155.472 10.0682 155.093 11.1009 155.103C15.2206 155.14 15.4191 155.386 14.4265 160.089C10.5473 160.089 6.59838 160.192 2.65832 160.043C0.856037 159.975 0.405574 157.271 1.89132 155.042C3.85361 152.097 5.97259 149.266 7.99944 146.368C8.55439 145.574 9.06898 144.74 9.51444 143.876C9.99341 142.947 9.76614 142.121 8.88295 141.575C8.01761 141.041 7.25415 141.21 6.59637 142.022C6.11425 142.618 6.02354 143.634 5.10983 143.76C4.01156 143.911 2.75341 144.223 1.90772 143.31C1.14456 142.486 1.78823 141.438 2.10256 140.529C2.48663 139.419 3.08913 138.443 4.09608 137.513Z" fill="#0A9786"/>
<path d="M86.4305 150.843C86.5431 146.95 86.6584 143.268 86.5653 139.592C86.5123 137.501 87.4123 137.021 89.2157 137.012C91.0651 137.002 91.6075 137.816 91.5902 139.607C91.5297 145.891 91.5312 152.175 91.5731 158.459C91.5844 160.146 90.9591 160.947 89.3144 160.971C87.7981 160.993 86.4726 160.886 86.5894 158.769C86.6729 157.256 85.8979 156.678 84.525 156.716C83.3166 156.75 82.106 156.77 80.898 156.733C79.4953 156.691 78.5366 157.071 78.5594 158.797C78.5868 160.859 77.2049 160.974 75.7098 160.955C74.0946 160.935 73.675 159.963 73.6922 158.495C73.7879 150.309 72.9613 151.885 79.7825 151.641C81.9688 151.563 84.2523 152.337 86.4305 150.843Z" fill="#0A9786"/>
<path d="M75.2945 75.0878C79.0222 75.1388 79.0258 75.1388 79.0376 78.6384C79.0457 81.0613 79.01 83.4849 79.0552 85.9068C79.0867 87.6006 78.388 88.3643 76.7338 88.331C74.0583 88.277 71.3806 88.2853 68.7047 88.3264C67.0828 88.3513 66.3427 87.6516 66.3817 85.9169C66.4462 83.0468 66.4411 80.1735 66.3935 77.3028C66.3668 75.6935 67.0342 75.0367 68.567 75.0781C70.7241 75.1365 72.8837 75.0898 75.2945 75.0878Z" fill="#0A9786"/>
<path d="M82.9666 82.7937C82.9833 75.0798 82.9835 75.0489 90.2216 75.1009C96.017 75.1425 95.584 74.2121 95.5809 80.744C95.5801 82.5381 95.5728 84.3323 95.5746 86.1264C95.5762 87.6813 94.8746 88.3929 93.3417 88.3562C91.0125 88.3005 88.6706 88.2057 86.3534 88.3903C83.8069 88.5932 82.5666 87.7376 82.9559 84.9407C83.0416 84.3257 82.9672 83.6866 82.9666 82.7937Z" fill="#0A9786"/>
<path d="M83.1556 58.7269C86.9152 57.1509 90.6934 58.0108 94.4245 57.9871C95.5226 57.9801 95.572 59.1679 95.5761 60.0656C95.5895 62.9314 95.5526 65.7975 95.5502 68.6634C95.5488 70.2913 94.906 71.1402 93.2197 71.0976C90.5498 71.0302 87.8766 71.0439 85.2061 71.0951C83.5285 71.1272 82.9155 70.3204 82.9611 68.6367C83.0484 65.4156 83.041 62.1918 83.1556 58.7269Z" fill="#0A9786"/>
<path d="M66.3938 61.3034C66.1022 58.6627 66.9353 57.5881 69.4042 57.7883C71.8898 57.9898 74.4026 57.8841 76.9016 57.8277C78.4648 57.7924 79.0689 58.53 79.0485 60.0922C79.0123 62.8696 79.0099 65.6483 79.0538 68.4255C79.0817 70.1871 78.4322 71.1012 76.6301 71.063C74.0448 71.0083 71.4559 71.0014 68.8715 71.0787C66.9286 71.1368 66.2959 70.1867 66.3746 68.2844C66.4671 66.0484 66.3946 63.8049 66.3938 61.3034Z" fill="#0A9786"/>
<path d="M73.851 138.092C77.2047 135.919 78.6087 136.684 78.6175 140.431C78.6215 142.126 78.553 143.823 78.6243 145.515C78.7036 147.395 77.6841 147.7 76.1865 147.702C74.6987 147.705 73.6481 147.42 73.7 145.545C73.7666 143.139 73.7624 140.731 73.851 138.092Z" fill="#0A9786"/>
<path fill-rule="evenodd" clip-rule="evenodd" d="M43.6991 122.22V128.099H55.1527V122.22H54.6007V127.526H51.1508V123.367H47.8389V127.526H44.251V122.22H43.6991ZM50.7368 127.239H48.2529V123.798H50.7368V127.239Z" fill="#0A9786"/>
<path fill-rule="evenodd" clip-rule="evenodd" d="M56.6706 122.22L53.4967 118.922V115.624H52.9447V118.205L49.4259 114.62L42.6641 122.22H43.6991H44.251H54.6007H55.1527H56.6706ZM43.9751 121.647L49.4259 115.624L55.4286 121.647H43.9751Z" fill="#0A9786"/>
<path d="M43.6991 122.22H42.6641L49.4259 114.62L52.9447 118.205V115.624H53.4967V118.922L56.6706 122.22H55.1527M43.6991 122.22V128.099H55.1527V122.22M43.6991 122.22H44.251M55.1527 122.22H54.6007M44.251 122.22V127.526H47.8389V123.367H51.1508V127.526H54.6007V122.22M44.251 122.22H54.6007M100.813 110.394C95.1905 113.771 89.7087 117.009 84.2899 120.358C82.1438 121.684 80.2432 121.765 78.0173 120.418C63.2338 111.476 48.4055 102.613 33.5693 93.7656C31.1464 92.3206 30.0673 90.3283 30.0828 87.3948C30.1601 72.7559 30.1268 58.1163 30.1572 43.477C30.1599 42.1715 29.8943 40.7744 30.9915 39.433C33.7061 40.739 36.2717 42.3377 38.7087 44.1571C39.9434 45.0789 39.7348 46.5407 39.7322 47.8746C39.7113 58.7339 40.3365 69.5964 39.7095 80.4508C39.4921 84.2153 40.8526 86.6267 44.0869 88.4668C54.3907 94.3289 64.6632 100.265 74.5586 106.859C78.7828 109.675 82.917 109.846 87.1866 107.064C97.5845 100.288 108.312 94.0992 119.044 87.9264C121.457 86.5388 122.449 84.7299 122.424 81.8717C122.325 70.7359 122.437 59.5981 122.346 48.4622C122.322 45.4966 123.239 43.5005 125.972 42.354C127.706 41.6269 129.298 40.5376 130.92 39.6298C132.141 40.7189 132.011 42.0185 132.013 43.2416C132.028 58.0606 131.994 72.8798 132.054 87.6985C132.065 90.5417 130.957 92.3844 128.602 93.7745C119.365 99.2276 110.182 104.782 100.813 110.394ZM46.6402 43.1148C46.5876 40.8976 47.7078 39.746 49.2143 38.8419C58.8701 33.0473 68.5422 27.2815 78.1599 21.4193C80.2989 20.1155 82.082 20.2959 84.174 21.58C93.5501 27.3357 102.986 32.9876 112.432 38.6182C114.412 39.7985 115.498 41.2998 115.493 43.7735C115.469 55.4472 115.542 67.1211 115.551 78.7949C115.553 81.4888 114.675 82.2339 112.013 82.0905C110.722 82.021 109.425 81.9783 108.135 82.0324C105.435 82.1455 104.76 81.5567 104.755 78.6548C104.74 69.1302 104.699 59.6046 104.823 50.0816C104.856 47.5025 103.972 45.8928 101.841 44.6583C95.8014 41.1603 89.8002 37.5878 83.8472 33.9334C81.9072 32.7425 80.2413 32.7257 78.3029 33.9223C72.4341 37.5448 66.5189 41.0882 60.5719 44.5704C58.3301 45.883 57.5416 47.7732 57.5717 50.3432C57.6771 59.327 57.7224 68.3118 57.7412 77.2963C57.7499 81.4229 56.9544 82.1482 52.9746 81.9691C52.2837 81.938 51.5918 81.9349 50.9005 81.9139C47.5277 81.811 46.6626 80.9254 46.6542 77.3243C46.628 66.0027 46.6384 54.681 46.6402 43.1148ZM89.3734 5.10954C103.641 13.6283 117.742 22.0514 132.345 30.7741C129.334 33.2498 126.857 34.8308 124.17 35.9794C122.722 36.5983 121.329 35.8286 120.015 35.0393C108.272 27.9841 96.4851 21.0083 84.7872 13.8742C82.2786 12.3442 80.2386 12.1383 77.6268 13.7509C66.8606 20.398 55.9493 26.7905 45.1405 33.3639C38.4614 37.4258 37.5463 36.8848 30.6366 31.0275C30.8249 29.9865 31.7485 29.7358 32.4584 29.3106C47.5787 20.2552 62.7319 11.2586 77.8136 2.13433C80.2055 0.687251 82.2205 0.537552 84.4929 2.19325C85.9715 3.27066 87.6291 4.08281 89.3734 5.10954ZM136.285 155.279C134.951 157.083 135.079 159.994 132.059 159.964C130.428 159.947 129.274 159.546 128.541 157.886C127.319 155.12 125.942 152.429 124.12 149.73C124.12 152.593 124.071 155.459 124.137 158.321C124.183 160.3 123.326 161.001 121.478 161C119.515 160.999 119.256 159.877 119.267 158.227C119.308 152.126 119.26 146.026 119.302 139.926C119.309 138.863 118.861 137.343 120.548 137.164C122.118 136.996 123.833 136.524 124.788 138.645C126.651 142.787 128.608 146.884 130.547 150.989C130.843 151.617 130.996 152.364 131.973 152.948C133.978 148.802 135.972 144.677 137.968 140.553C138.356 139.752 138.704 138.924 139.154 138.163C140.15 136.481 141.763 137.002 143.134 137.22C144.444 137.428 144.049 138.744 144.052 139.664C144.067 144.06 144.001 148.456 144.049 152.851C144.067 154.542 143.506 155.274 141.798 155.258C140.14 155.242 139.408 154.604 139.508 152.873C139.569 151.811 139.519 150.742 139.131 149.523C138.211 151.382 137.292 153.24 136.285 155.279ZM58.7789 146.948C58.1315 143.967 56.6093 142.018 53.9188 141.312C52.3087 140.89 50.8516 141.122 51.1379 143.453C51.4104 145.671 50.3001 146.208 48.4408 146.267C46.2973 146.336 46.0737 145.039 46.1428 143.321C46.1969 141.977 46.2168 140.623 46.1279 139.283C46.02 137.656 46.2481 136.264 48.0295 135.655C46.3944 133.004 44.6751 131.123 41.4716 131.463C39.2103 131.703 37.8619 130.343 37.6771 128.009C37.3371 123.714 37.2923 119.408 37.6947 115.11C37.9058 112.856 39.1897 111.766 41.3303 111.762C46.6856 111.754 52.0419 111.706 57.3958 111.8C59.9658 111.844 61.3561 113.347 61.4215 116.068C61.5122 119.836 61.5183 123.61 61.42 127.378C61.347 130.179 60.0216 131.658 57.3561 131.44C54.1059 131.174 52.4804 133.015 50.9704 135.696C52.2143 136.407 53.5027 136.401 54.7333 136.651C61.9031 138.106 64.1402 143.356 63.9216 149.271C63.6936 155.439 59.0443 159.963 53.0286 160.045C44.7889 160.156 46.3947 161.271 46.1085 153.111C46.0235 150.686 46.9188 149.894 49.1379 150.094C50.5283 150.22 51.0793 150.771 51.1541 152.245C51.2906 154.935 52.0054 155.411 54.5362 154.833C57.8102 154.085 59.4002 151.245 58.7789 146.948ZM54.2947 130.495C54.9759 130.398 55.6544 130.258 56.3388 130.212C59.5382 130.002 60.0933 129.427 60.103 126.167C60.1127 122.937 60.0893 119.708 60.1012 116.478C60.1093 114.286 59.1707 113.158 56.9752 113.162C52.0551 113.168 47.1346 113.128 42.2149 113.066C39.8613 113.036 38.6811 114.145 38.6941 116.622C38.7114 119.941 38.7079 123.261 38.6885 126.58C38.6745 128.972 39.6249 130.37 42.0894 130.193C44.5683 130.015 46.4049 131.076 47.8272 133.141C48.2547 133.761 48.6202 134.569 49.5942 134.685C51.1976 133.564 51.9154 131.352 54.2947 130.495ZM20.7226 143.74C20.7245 142.127 20.6577 140.777 20.7497 139.438C20.8287 138.289 20.1995 136.673 21.9213 136.312C23.5313 135.973 25.1555 135.902 26.3106 137.658C28.5981 141.136 30.9772 144.549 33.3318 147.978C33.8083 148.672 34.3441 149.322 35.2743 150.549C35.2743 146.294 35.326 142.74 35.2531 139.189C35.2148 137.322 35.4995 136.109 37.7286 136.109C39.8736 136.108 40.2983 137.129 40.27 139.091C40.1846 145.008 40.2765 150.927 40.2079 156.844C40.1949 157.965 40.9198 159.747 39.251 160.032C37.5063 160.329 35.5807 160.752 34.2374 158.489C31.9313 154.602 29.3283 150.906 26.8437 147.135C26.62 146.795 26.3508 146.488 25.6539 145.583C25.6539 148.288 25.614 150.316 25.6653 152.341C25.7146 154.287 24.7196 154.73 23.0524 154.714C21.4158 154.698 20.6898 154.095 20.7285 152.347C20.79 149.569 20.7309 146.788 20.7226 143.74ZM115.63 150.053C114.799 157.185 110.045 161.359 104.306 160.183C99.2999 159.157 95.7128 154.099 96.1862 148.734C96.7194 142.691 100.737 138.353 105.802 138.351C110.88 138.348 114.869 142.393 115.542 148.237C115.603 148.768 115.624 149.303 115.63 150.053ZM110.881 149.396C110.603 148.555 110.458 147.628 110.021 146.889C108.931 145.048 107.27 144.144 105.188 144.505C103.124 144.863 101.854 146.267 101.245 148.318C100.619 150.426 101.535 152.011 103.004 153.274C105.909 155.77 109.396 154.193 110.881 149.396ZM158.421 138.416C158.773 140.937 157.998 142.1 155.63 141.789C154.867 141.689 154.077 141.772 153.301 141.807C151.83 141.873 151.792 142.969 151.774 144.106C151.754 145.289 151.897 146.297 153.364 146.311C155.092 146.328 156.819 146.383 158.546 146.379C160.074 146.375 160.986 146.906 161 148.709C161.014 150.526 160.301 151.358 158.545 151.329C156.905 151.302 155.262 151.424 153.622 151.391C151.85 151.355 151.784 152.51 151.765 153.891C151.744 155.361 152.276 156.082 153.735 156C154.51 155.956 155.293 156.042 156.066 155.979C157.836 155.836 158.515 156.619 158.53 158.484C158.546 160.416 157.717 161.018 156.022 160.97C153.778 160.906 151.531 160.911 149.285 160.934C147.699 160.95 146.909 160.302 146.925 158.541C146.983 152.167 146.988 145.792 146.974 139.418C146.97 137.727 147.62 136.987 149.302 137.051C151.631 137.14 153.966 137.047 156.298 137.067C157.148 137.074 158.088 136.993 158.421 138.416ZM4.09608 137.513C7.6452 135.641 11.3604 136.22 13.4238 138.808C15.3064 141.168 15.1247 144.455 12.8629 147.733C11.2595 150.058 9.58948 152.332 7.82711 154.8C8.95167 155.472 10.0682 155.093 11.1009 155.103C15.2206 155.14 15.4191 155.386 14.4265 160.089C10.5473 160.089 6.59838 160.192 2.65832 160.043C0.856037 159.975 0.405574 157.271 1.89132 155.042C3.85361 152.097 5.97259 149.266 7.99944 146.368C8.55439 145.574 9.06898 144.74 9.51444 143.876C9.99341 142.947 9.76614 142.121 8.88295 141.575C8.01761 141.041 7.25415 141.21 6.59637 142.022C6.11425 142.618 6.02354 143.634 5.10983 143.76C4.01156 143.911 2.75341 144.223 1.90772 143.31C1.14456 142.486 1.78823 141.438 2.10256 140.529C2.48663 139.419 3.08913 138.443 4.09608 137.513ZM86.4305 150.843C86.5431 146.95 86.6584 143.268 86.5653 139.592C86.5123 137.501 87.4123 137.021 89.2157 137.012C91.0651 137.002 91.6075 137.816 91.5902 139.607C91.5297 145.891 91.5312 152.175 91.5731 158.459C91.5844 160.146 90.9591 160.947 89.3144 160.971C87.7981 160.993 86.4726 160.886 86.5894 158.769C86.6729 157.256 85.8979 156.678 84.525 156.716C83.3166 156.75 82.106 156.77 80.898 156.733C79.4953 156.691 78.5366 157.071 78.5594 158.797C78.5868 160.859 77.2049 160.974 75.7098 160.955C74.0946 160.935 73.675 159.963 73.6922 158.495C73.7879 150.309 72.9613 151.885 79.7825 151.641C81.9688 151.563 84.2523 152.337 86.4305 150.843ZM75.2945 75.0878C79.0222 75.1388 79.0258 75.1388 79.0376 78.6384C79.0457 81.0613 79.01 83.4849 79.0552 85.9068C79.0867 87.6006 78.388 88.3643 76.7338 88.331C74.0583 88.277 71.3806 88.2853 68.7047 88.3264C67.0828 88.3513 66.3427 87.6516 66.3817 85.9169C66.4462 83.0468 66.4411 80.1735 66.3935 77.3028C66.3668 75.6935 67.0342 75.0367 68.567 75.0781C70.7241 75.1365 72.8837 75.0898 75.2945 75.0878ZM82.9666 82.7937C82.9833 75.0798 82.9835 75.0489 90.2216 75.1009C96.017 75.1425 95.584 74.2121 95.5809 80.744C95.5801 82.5381 95.5728 84.3323 95.5746 86.1264C95.5762 87.6813 94.8746 88.3929 93.3417 88.3562C91.0125 88.3005 88.6706 88.2057 86.3534 88.3903C83.8069 88.5932 82.5666 87.7376 82.9559 84.9407C83.0416 84.3257 82.9672 83.6866 82.9666 82.7937ZM83.1556 58.7269C86.9152 57.1509 90.6934 58.0108 94.4245 57.9871C95.5226 57.9801 95.572 59.1679 95.5761 60.0656C95.5895 62.9314 95.5526 65.7975 95.5502 68.6634C95.5488 70.2913 94.906 71.1402 93.2197 71.0976C90.5498 71.0302 87.8766 71.0439 85.2061 71.0951C83.5285 71.1272 82.9155 70.3204 82.9611 68.6367C83.0484 65.4156 83.041 62.1918 83.1556 58.7269ZM66.3938 61.3034C66.1022 58.6627 66.9353 57.5881 69.4042 57.7883C71.8898 57.9898 74.4026 57.8841 76.9016 57.8277C78.4648 57.7924 79.0689 58.53 79.0485 60.0922C79.0123 62.8696 79.0099 65.6483 79.0538 68.4255C79.0817 70.1871 78.4322 71.1012 76.6301 71.063C74.0448 71.0083 71.4559 71.0014 68.8715 71.0787C66.9286 71.1368 66.2959 70.1867 66.3746 68.2844C66.4671 66.0484 66.3946 63.8049 66.3938 61.3034ZM73.851 138.092C77.2047 135.919 78.6087 136.684 78.6175 140.431C78.6215 142.126 78.553 143.823 78.6243 145.515C78.7036 147.395 77.6841 147.7 76.1865 147.702C74.6987 147.705 73.6481 147.42 73.7 145.545C73.7666 143.139 73.7624 140.731 73.851 138.092ZM48.2529 127.239H50.7368V123.798H48.2529V127.239ZM49.4259 115.624L43.9751 121.647H55.4286L49.4259 115.624Z" stroke="#0A9786"/>
</svg>
