<svg width="66" height="66" viewBox="0 0 66 66" fill="none" xmlns="http://www.w3.org/2000/svg">
<path d="M40.9254 44.7576C38.6762 46.1085 36.4835 47.4037 34.316 48.743C33.4575 49.2734 32.6973 49.306 31.8069 48.7674C25.8935 45.1904 19.9622 41.6454 14.0277 38.1062C13.0586 37.5283 12.6269 36.7313 12.6331 35.5579C12.664 29.7024 12.6507 23.8465 12.6629 17.9908C12.664 17.4686 12.5577 16.9098 12.9966 16.3732C14.0824 16.8956 15.1087 17.5351 16.0835 18.2628C16.5774 18.6316 16.4939 19.2163 16.4929 19.7498C16.4845 24.0936 16.7346 28.4386 16.4838 32.7803C16.3968 34.2861 16.941 35.2507 18.2348 35.9867C22.3563 38.3315 26.4653 40.706 30.4234 43.3438C32.1131 44.4698 33.7668 44.5385 35.4747 43.4255C39.6338 40.7152 43.9247 38.2397 48.2178 35.7706C49.1828 35.2155 49.5795 34.492 49.5694 33.3487C49.5302 28.8944 49.5747 24.4393 49.5383 19.9849C49.5286 18.7986 49.8956 18.0002 50.9889 17.5416C51.6823 17.2507 52.3194 16.815 52.968 16.4519C53.4563 16.8876 53.4046 17.4074 53.4051 17.8967C53.4111 23.8243 53.3977 29.7519 53.4215 35.6794C53.4261 36.8167 52.9827 37.5537 52.0408 38.1098C48.3458 40.291 44.673 42.5129 40.9254 44.7576Z" fill="#0A9786"/>
<path d="M19.2561 17.8459C19.235 16.959 19.6831 16.4984 20.2857 16.1368C24.148 13.8189 28.0169 11.5126 31.864 9.1677C32.7195 8.6462 33.4328 8.71834 34.2696 9.23201C38.0201 11.5343 41.7943 13.795 45.5729 16.0473C46.365 16.5194 46.7992 17.1199 46.7972 18.1094C46.7876 22.7789 46.817 27.4484 46.8205 32.118C46.8213 33.1955 46.47 33.4936 45.4053 33.4362C44.889 33.4084 44.37 33.3913 43.8539 33.413C42.7739 33.4582 42.504 33.2227 42.5022 32.0619C42.4962 28.2521 42.4797 24.4419 42.5292 20.6326C42.5426 19.601 42.1889 18.9571 41.3364 18.4633C38.9206 17.0641 36.5201 15.6351 34.1389 14.1734C33.3629 13.697 32.6965 13.6903 31.9212 14.1689C29.5736 15.6179 27.2076 17.0353 24.8288 18.4282C23.932 18.9532 23.6166 19.7093 23.6287 20.7373C23.6709 24.3308 23.689 27.9247 23.6965 31.5185C23.7 33.1692 23.3818 33.4593 21.7898 33.3876C21.5135 33.3752 21.2367 33.374 20.9602 33.3655C19.6111 33.3244 19.265 32.9702 19.2617 31.5297C19.2512 27.0011 19.2554 22.4724 19.2561 17.8459Z" fill="#0A9786"/>
<path d="M36.3494 2.64382C42.0565 6.05133 47.6969 9.42055 53.538 12.9097C52.3336 13.8999 51.3428 14.5323 50.268 14.9918C49.6889 15.2393 49.1315 14.9314 48.606 14.6157C43.9089 11.7936 39.1941 9.00333 34.5149 6.14968C33.5114 5.53769 32.6954 5.45533 31.6507 6.10036C27.3442 8.75918 22.9797 11.3162 18.6562 13.9456C15.9846 15.5703 15.6185 15.3539 12.8546 13.011C12.93 12.5946 13.2994 12.4943 13.5834 12.3243C19.6315 8.70207 25.6928 5.10346 31.7254 1.45373C32.6822 0.8749 33.4882 0.815021 34.3972 1.4773C34.9886 1.90826 35.6516 2.23313 36.3494 2.64382Z" fill="#0A9786"/>
<path d="M55.1138 62.7116C54.5806 63.4331 54.6316 64.5975 53.4238 64.5855C52.7714 64.5789 52.3096 64.4182 52.0164 63.7545C51.5276 62.6482 50.9768 61.5715 50.2481 60.4918C50.2481 61.6374 50.2284 62.7834 50.2549 63.9283C50.2732 64.7199 49.9303 65.0003 49.1912 65C48.406 64.9997 48.3024 64.5509 48.3068 63.8906C48.323 61.4506 48.3038 59.0102 48.3208 56.5702C48.3237 56.1453 48.1445 55.5374 48.8192 55.4654C49.447 55.3985 50.1334 55.2097 50.515 56.0581C51.2603 57.715 52.0432 59.3536 52.8188 60.9957C52.9374 61.2468 52.9984 61.5455 53.3892 61.7791C54.1912 60.121 54.9888 58.4709 55.7873 56.8213C55.9424 56.5008 56.0814 56.1697 56.2617 55.8652C56.66 55.1924 57.305 55.4009 57.8536 55.488C58.3774 55.5713 58.2195 56.0977 58.2208 56.4657C58.2269 58.2239 58.2003 59.9824 58.2194 61.7405C58.2268 62.4168 58.0025 62.7094 57.3192 62.703C56.6558 62.6968 56.3634 62.4414 56.4032 61.7493C56.4277 61.3244 56.4077 60.8967 56.2522 60.4093C55.8844 61.1527 55.5166 61.8961 55.1138 62.7116Z" fill="#0A9786"/>
<path d="M24.1116 59.3791C23.8526 58.1869 23.2437 57.4071 22.1675 57.1248C21.5235 56.9558 20.9406 57.0486 21.0552 57.9811C21.1642 58.8685 20.7201 59.0832 19.9763 59.1069C19.1189 59.1343 19.0295 58.6155 19.0571 57.9284C19.0788 57.3908 19.0867 56.8494 19.0511 56.3132C19.008 55.6625 19.0992 55.1057 19.8118 54.862C19.1578 53.8014 18.47 53.049 17.1886 53.1852C16.2841 53.2813 15.7448 52.7371 15.6709 51.8036C15.5348 50.0855 15.5169 48.363 15.6779 46.6442C15.7623 45.7423 16.2759 45.3063 17.1321 45.305C19.2742 45.3017 21.4168 45.2826 23.5583 45.3198C24.5863 45.3377 25.1424 45.9389 25.1686 47.0271C25.2049 48.5343 25.2073 50.0441 25.168 51.5511C25.1388 52.6714 24.6087 53.2633 23.5424 53.1761C22.2423 53.0698 21.5921 53.8059 20.9882 54.8786C21.4857 55.1627 22.0011 55.1604 22.4933 55.2603C25.3612 55.8424 26.2561 57.9423 26.1686 60.3086C26.0774 62.7755 24.2177 64.5853 21.8114 64.6179C18.5156 64.6625 19.1579 65.1085 19.0434 61.8444C19.0094 60.8743 19.3675 60.5577 20.2552 60.6378C20.8113 60.6879 21.0317 60.9082 21.0616 61.4979C21.1162 62.5741 21.4022 62.7642 22.4145 62.533C23.7241 62.2339 24.3601 61.0979 24.1116 59.3791ZM22.3179 52.798C22.5904 52.7593 22.8618 52.703 23.1355 52.685C24.4153 52.6007 24.6373 52.3708 24.6412 51.0669C24.6451 49.775 24.6357 48.4831 24.6405 47.1912C24.6437 46.3143 24.2683 45.8634 23.3901 45.8646C21.422 45.8674 19.4539 45.8514 17.4859 45.8262C16.5445 45.8142 16.0725 46.2578 16.0776 47.2487C16.0846 48.5764 16.0832 49.9043 16.0754 51.2321C16.0698 52.1887 16.45 52.7479 17.4357 52.6773C18.4273 52.6062 19.162 53.0305 19.7309 53.8563C19.9019 54.1045 20.0481 54.4276 20.4377 54.4739C21.079 54.0255 21.3661 53.1406 22.3179 52.798Z" fill="#0A9786"/>
<path d="M8.88904 58.096C8.88979 57.4507 8.86308 56.9106 8.89988 56.3753C8.93147 55.9158 8.67978 55.2694 9.36851 55.1246C10.0125 54.9893 10.6622 54.9607 11.1243 55.6632C12.0393 57.0543 12.9909 58.4194 13.9327 59.7913C14.1233 60.069 14.3376 60.329 14.7097 60.8196C14.7097 59.1176 14.7304 57.696 14.7012 56.2756C14.6859 55.5289 14.7998 55.0437 15.6914 55.0434C16.5495 55.0432 16.7193 55.4515 16.708 56.2364C16.6738 58.603 16.7106 60.9707 16.6832 63.3375C16.678 63.7862 16.9679 64.499 16.3004 64.6127C15.6025 64.7316 14.8323 64.901 14.295 63.9955C13.3725 62.441 12.3313 60.9625 11.3375 59.4539C11.248 59.3181 11.1403 59.1952 10.8615 58.8331C10.8615 59.9154 10.8456 60.7263 10.8661 61.5363C10.8858 62.3147 10.4878 62.4919 9.82095 62.4855C9.16633 62.4793 8.87591 62.238 8.8914 61.5387C8.916 60.4275 8.89237 59.3152 8.88904 58.096Z" fill="#0A9786"/>
<path d="M46.8519 60.6214C46.5196 63.474 44.618 65.1436 42.3225 64.6731C40.32 64.2627 38.8851 62.2396 39.0745 60.0935C39.2878 57.6764 40.8946 55.9413 42.9208 55.9402C44.9521 55.9392 46.5477 57.5573 46.8169 59.8948C46.8414 60.107 46.8496 60.3213 46.8519 60.6214ZM44.9524 60.3585C44.8411 60.0219 44.7832 59.6512 44.6082 59.3554C44.1726 58.6192 43.5079 58.2578 42.6753 58.402C41.8497 58.545 41.3416 59.1069 41.0981 59.9273C40.8478 60.7705 41.214 61.4043 41.8017 61.9094C42.9637 62.9081 44.3583 62.2774 44.9524 60.3585Z" fill="#0A9786"/>
<path d="M63.9684 55.9666C64.1093 56.9746 63.7993 57.4401 62.8521 57.3156C62.5466 57.2754 62.2309 57.3088 61.9204 57.3228C61.3321 57.3493 61.3169 57.7878 61.3095 58.2425C61.3018 58.7156 61.3589 59.1188 61.9457 59.1246C62.6367 59.1314 63.3276 59.1533 64.0185 59.1516C64.6295 59.1502 64.9943 59.3625 64.9999 60.0838C65.0056 60.8102 64.7204 61.1434 64.0179 61.1317C63.3619 61.1208 62.7049 61.1698 62.049 61.1563C61.34 61.1418 61.3137 61.6039 61.306 62.1564C61.2977 62.7444 61.5105 63.0327 62.0938 62.9998C62.4039 62.9823 62.7171 63.0168 63.0262 62.9918C63.7346 62.9343 64.006 63.2478 64.0121 63.9935C64.0184 64.7663 63.6869 65.0073 63.0089 64.9881C62.1111 64.9626 61.2123 64.9643 60.3141 64.9734C59.6795 64.9798 59.3635 64.7208 59.37 64.0162C59.3932 61.4668 59.3953 58.917 59.3896 56.3674C59.3881 55.6908 59.6479 55.3946 60.3209 55.4204C61.2525 55.456 62.1864 55.4189 63.1192 55.4267C63.4591 55.4295 63.8351 55.3973 63.9684 55.9666Z" fill="#0A9786"/>
<path d="M2.23843 55.6054C3.65808 54.8566 5.14417 55.088 5.96953 56.123C6.72257 57.0674 6.64989 58.3819 5.74515 59.6934C5.1038 60.6231 4.43579 61.5329 3.73085 62.52C4.18067 62.7887 4.62727 62.6372 5.04034 62.641C6.68822 62.6561 6.76764 62.7543 6.37059 64.6356C4.81891 64.6356 3.23935 64.6767 1.66333 64.6172C0.942415 64.59 0.76223 63.5083 1.35653 62.6166C2.14144 61.4389 2.98904 60.3064 3.79977 59.1471C4.02175 58.8296 4.22759 58.4962 4.40578 58.1505C4.59737 57.7789 4.50646 57.4483 4.15318 57.2301C3.80704 57.0162 3.50166 57.084 3.23855 57.4089C3.0457 57.647 3.00941 58.0537 2.64393 58.1039C2.20462 58.1642 1.70137 58.2891 1.36309 57.9239C1.05782 57.5943 1.31529 57.1753 1.44102 56.8118C1.59465 56.3676 1.83565 55.977 2.23843 55.6054Z" fill="#0A9786"/>
<path d="M35.1722 60.9372C35.2172 59.3798 35.2634 57.9071 35.2261 56.4367C35.2049 55.6003 35.5649 55.4085 36.2863 55.4047C37.0261 55.4008 37.243 55.7263 37.2361 56.4428C37.2119 58.9562 37.2125 61.4701 37.2292 63.9837C37.2337 64.6584 36.9836 64.9789 36.3258 64.9884C35.7192 64.9971 35.189 64.9544 35.2357 64.1076C35.2691 63.5023 34.9592 63.2712 34.41 63.2865C33.9266 63.3 33.4424 63.3079 32.9592 63.2933C32.3981 63.2764 32.0146 63.4286 32.0238 64.1189C32.0347 64.9435 31.482 64.9895 30.8839 64.9821C30.2378 64.9742 30.07 64.5852 30.0769 63.9982C30.1152 60.7235 29.7845 61.3542 32.513 61.2564C33.3875 61.225 34.3009 61.5348 35.1722 60.9372Z" fill="#0A9786"/>
<path d="M30.7178 30.6351C32.2089 30.6555 32.2103 30.6555 32.215 32.0554C32.2183 33.0245 32.204 33.9939 32.2221 34.9627C32.2347 35.6402 31.9552 35.9457 31.2935 35.9324C30.2233 35.9108 29.1522 35.9141 28.0819 35.9306C27.4331 35.9405 27.1371 35.6606 27.1527 34.9668C27.1785 33.8187 27.1764 32.6694 27.1574 31.5211C27.1467 30.8774 27.4137 30.6147 28.0268 30.6313C28.8896 30.6546 29.7535 30.6359 30.7178 30.6351Z" fill="#0A9786"/>
<path d="M33.7866 33.7175C33.7933 30.6319 33.7934 30.6196 36.6886 30.6403C39.0068 30.657 38.8336 30.2848 38.8324 32.8976C38.832 33.6153 38.8291 34.3329 38.8299 35.0506C38.8305 35.6725 38.5499 35.9571 37.9367 35.9425C37.005 35.9202 36.0682 35.8823 35.1414 35.9561C34.1228 36.0373 33.6266 35.695 33.7824 34.5763C33.8166 34.3303 33.7869 34.0746 33.7866 33.7175Z" fill="#0A9786"/>
<path d="M33.8622 24.0908C35.3661 23.4604 36.8774 23.8043 38.3698 23.7948C38.809 23.792 38.8288 24.2672 38.8305 24.6262C38.8358 25.7726 38.821 26.919 38.8201 28.0654C38.8195 28.7165 38.5624 29.0561 37.8879 29.039C36.8199 29.0121 35.7506 29.0176 34.6824 29.038C34.0114 29.0509 33.7662 28.7282 33.7845 28.0547C33.8194 26.7662 33.8164 25.4767 33.8622 24.0908Z" fill="#0A9786"/>
<path d="M27.1575 25.1214C27.0409 24.0651 27.3741 23.6353 28.3617 23.7153C29.3559 23.7959 30.361 23.7536 31.3607 23.7311C31.9859 23.717 32.2276 24.012 32.2194 24.6369C32.2049 25.7478 32.204 26.8593 32.2215 27.9702C32.2327 28.6748 31.9729 29.0405 31.2521 29.0252C30.2179 29.0033 29.1824 29.0005 28.1486 29.0315C27.3714 29.0547 27.1184 28.6747 27.1498 27.9138C27.1869 27.0193 27.1578 26.122 27.1575 25.1214Z" fill="#0A9786"/>
<path d="M30.1404 55.8367C31.4819 54.9674 32.0435 55.2738 32.047 56.7724C32.0486 57.4503 32.0212 58.1293 32.0497 58.8058C32.0814 59.5579 31.6736 59.6799 31.0746 59.6809C30.4795 59.6819 30.0593 59.568 30.08 58.8181C30.1066 57.8557 30.1049 56.8925 30.1404 55.8367Z" fill="#0A9786"/>
<path fill-rule="evenodd" clip-rule="evenodd" d="M18.0796 49.4881V51.8398H22.6611V49.4881H22.4403V51.6104H21.0603V49.947H19.7356V51.6104H18.3004V49.4881H18.0796ZM20.8947 51.4957H19.9012V50.1191H20.8947V51.4957Z" fill="#0A9786"/>
<path fill-rule="evenodd" clip-rule="evenodd" d="M23.2682 49.4881L21.9987 48.1689V46.8497H21.7779V47.8821L20.3703 46.4482L17.6656 49.4881H18.0796H18.3004H22.4403H22.6611H23.2682ZM18.19 49.2587L20.3703 46.8497L22.7715 49.2587H18.19Z" fill="#0A9786"/>
<path d="M18.0796 49.4881H17.6656L20.3703 46.4482L21.7779 47.8821V46.8497H21.9987V48.1689L23.2682 49.4881H22.6611M18.0796 49.4881V51.8398H22.6611V49.4881M18.0796 49.4881H18.3004M22.6611 49.4881H22.4403M18.3004 49.4881V51.6104H19.7356V49.947H21.0603V51.6104H22.4403V49.4881M18.3004 49.4881H22.4403M40.9254 44.7576C38.6762 46.1085 36.4835 47.4037 34.316 48.743C33.4575 49.2734 32.6973 49.306 31.8069 48.7674C25.8935 45.1904 19.9622 41.6454 14.0277 38.1062C13.0586 37.5283 12.6269 36.7313 12.6331 35.5579C12.664 29.7024 12.6507 23.8465 12.6629 17.9908C12.664 17.4686 12.5577 16.9098 12.9966 16.3732C14.0824 16.8956 15.1087 17.5351 16.0835 18.2628C16.5774 18.6316 16.4939 19.2163 16.4929 19.7498C16.4845 24.0936 16.7346 28.4386 16.4838 32.7803C16.3968 34.2861 16.941 35.2507 18.2348 35.9867C22.3563 38.3315 26.4653 40.706 30.4234 43.3438C32.1131 44.4698 33.7668 44.5385 35.4747 43.4255C39.6338 40.7152 43.9247 38.2397 48.2178 35.7706C49.1828 35.2155 49.5795 34.492 49.5694 33.3487C49.5302 28.8944 49.5747 24.4393 49.5383 19.9849C49.5286 18.7986 49.8956 18.0002 50.9889 17.5416C51.6823 17.2507 52.3194 16.815 52.968 16.4519C53.4563 16.8876 53.4046 17.4074 53.4051 17.8967C53.4111 23.8243 53.3977 29.7519 53.4215 35.6794C53.4261 36.8167 52.9827 37.5537 52.0408 38.1098C48.3458 40.291 44.673 42.5129 40.9254 44.7576ZM19.2561 17.8459C19.235 16.959 19.6831 16.4984 20.2857 16.1368C24.148 13.8189 28.0169 11.5126 31.864 9.1677C32.7195 8.6462 33.4328 8.71834 34.2696 9.23201C38.0201 11.5343 41.7943 13.795 45.5729 16.0473C46.365 16.5194 46.7992 17.1199 46.7972 18.1094C46.7876 22.7789 46.817 27.4484 46.8205 32.118C46.8213 33.1955 46.47 33.4936 45.4053 33.4362C44.889 33.4084 44.37 33.3913 43.8539 33.413C42.7739 33.4582 42.504 33.2227 42.5022 32.0619C42.4962 28.2521 42.4797 24.4419 42.5292 20.6326C42.5426 19.601 42.1889 18.9571 41.3364 18.4633C38.9206 17.0641 36.5201 15.6351 34.1389 14.1734C33.3629 13.697 32.6965 13.6903 31.9212 14.1689C29.5736 15.6179 27.2076 17.0353 24.8288 18.4282C23.932 18.9532 23.6166 19.7093 23.6287 20.7373C23.6709 24.3308 23.689 27.9247 23.6965 31.5185C23.7 33.1692 23.3818 33.4593 21.7898 33.3876C21.5135 33.3752 21.2367 33.374 20.9602 33.3655C19.6111 33.3244 19.265 32.9702 19.2617 31.5297C19.2512 27.0011 19.2554 22.4724 19.2561 17.8459ZM36.3494 2.64382C42.0565 6.05133 47.6969 9.42055 53.538 12.9097C52.3336 13.8999 51.3428 14.5323 50.268 14.9918C49.6889 15.2393 49.1315 14.9314 48.606 14.6157C43.9089 11.7936 39.1941 9.00333 34.5149 6.14968C33.5114 5.53769 32.6954 5.45533 31.6507 6.10036C27.3442 8.75918 22.9797 11.3162 18.6562 13.9456C15.9846 15.5703 15.6185 15.3539 12.8546 13.011C12.93 12.5946 13.2994 12.4943 13.5834 12.3243C19.6315 8.70207 25.6928 5.10346 31.7254 1.45373C32.6822 0.8749 33.4882 0.815021 34.3972 1.4773C34.9886 1.90826 35.6516 2.23313 36.3494 2.64382ZM55.1138 62.7116C54.5806 63.4331 54.6316 64.5975 53.4238 64.5855C52.7714 64.5789 52.3096 64.4182 52.0164 63.7545C51.5276 62.6482 50.9768 61.5715 50.2481 60.4918C50.2481 61.6374 50.2284 62.7834 50.2549 63.9283C50.2732 64.7199 49.9303 65.0003 49.1912 65C48.406 64.9997 48.3024 64.5509 48.3068 63.8906C48.323 61.4506 48.3038 59.0102 48.3208 56.5702C48.3237 56.1453 48.1445 55.5374 48.8192 55.4654C49.447 55.3985 50.1334 55.2097 50.515 56.0581C51.2603 57.715 52.0432 59.3536 52.8188 60.9957C52.9374 61.2468 52.9984 61.5455 53.3892 61.7791C54.1912 60.121 54.9888 58.4709 55.7873 56.8213C55.9424 56.5008 56.0814 56.1697 56.2617 55.8652C56.66 55.1924 57.305 55.4009 57.8536 55.488C58.3774 55.5713 58.2195 56.0977 58.2208 56.4657C58.2269 58.2239 58.2003 59.9824 58.2194 61.7405C58.2268 62.4168 58.0025 62.7094 57.3192 62.703C56.6558 62.6968 56.3634 62.4414 56.4032 61.7493C56.4277 61.3244 56.4077 60.8967 56.2522 60.4093C55.8844 61.1527 55.5166 61.8961 55.1138 62.7116ZM24.1116 59.3791C23.8526 58.1869 23.2437 57.4071 22.1675 57.1248C21.5235 56.9558 20.9406 57.0486 21.0552 57.9811C21.1642 58.8685 20.7201 59.0832 19.9763 59.1069C19.1189 59.1343 19.0295 58.6155 19.0571 57.9284C19.0788 57.3908 19.0867 56.8494 19.0511 56.3132C19.008 55.6625 19.0992 55.1057 19.8118 54.862C19.1578 53.8014 18.47 53.049 17.1886 53.1852C16.2841 53.2813 15.7448 52.7371 15.6709 51.8036C15.5348 50.0855 15.5169 48.363 15.6779 46.6442C15.7623 45.7423 16.2759 45.3063 17.1321 45.305C19.2742 45.3017 21.4168 45.2826 23.5583 45.3198C24.5863 45.3377 25.1424 45.9389 25.1686 47.0271C25.2049 48.5343 25.2073 50.0441 25.168 51.5511C25.1388 52.6714 24.6087 53.2633 23.5424 53.1761C22.2423 53.0698 21.5921 53.8059 20.9882 54.8786C21.4857 55.1627 22.0011 55.1604 22.4933 55.2603C25.3612 55.8424 26.2561 57.9423 26.1686 60.3086C26.0774 62.7755 24.2177 64.5853 21.8114 64.6179C18.5156 64.6625 19.1579 65.1085 19.0434 61.8444C19.0094 60.8743 19.3675 60.5577 20.2552 60.6378C20.8113 60.6879 21.0317 60.9082 21.0616 61.4979C21.1162 62.5741 21.4022 62.7642 22.4145 62.533C23.7241 62.2339 24.3601 61.0979 24.1116 59.3791ZM22.3179 52.798C22.5904 52.7593 22.8618 52.703 23.1355 52.685C24.4153 52.6007 24.6373 52.3708 24.6412 51.0669C24.6451 49.775 24.6357 48.4831 24.6405 47.1912C24.6437 46.3143 24.2683 45.8634 23.3901 45.8646C21.422 45.8674 19.4539 45.8514 17.4859 45.8262C16.5445 45.8142 16.0725 46.2578 16.0776 47.2487C16.0846 48.5764 16.0832 49.9043 16.0754 51.2321C16.0698 52.1887 16.45 52.7479 17.4357 52.6773C18.4273 52.6062 19.162 53.0305 19.7309 53.8563C19.9019 54.1045 20.0481 54.4276 20.4377 54.4739C21.079 54.0255 21.3661 53.1406 22.3179 52.798ZM8.88904 58.096C8.88979 57.4507 8.86308 56.9106 8.89988 56.3753C8.93147 55.9158 8.67978 55.2694 9.36851 55.1246C10.0125 54.9893 10.6622 54.9607 11.1243 55.6632C12.0393 57.0543 12.9909 58.4194 13.9327 59.7913C14.1233 60.069 14.3376 60.329 14.7097 60.8196C14.7097 59.1176 14.7304 57.696 14.7012 56.2756C14.6859 55.5289 14.7998 55.0437 15.6914 55.0434C16.5495 55.0432 16.7193 55.4515 16.708 56.2364C16.6738 58.603 16.7106 60.9707 16.6832 63.3375C16.678 63.7862 16.9679 64.499 16.3004 64.6127C15.6025 64.7316 14.8323 64.901 14.295 63.9955C13.3725 62.441 12.3313 60.9625 11.3375 59.4539C11.248 59.3181 11.1403 59.1952 10.8615 58.8331C10.8615 59.9154 10.8456 60.7263 10.8661 61.5363C10.8858 62.3147 10.4878 62.4919 9.82095 62.4855C9.16633 62.4793 8.87591 62.238 8.8914 61.5387C8.916 60.4275 8.89237 59.3152 8.88904 58.096ZM46.8519 60.6214C46.5196 63.474 44.618 65.1436 42.3225 64.6731C40.32 64.2627 38.8851 62.2396 39.0745 60.0935C39.2878 57.6764 40.8946 55.9413 42.9208 55.9402C44.9521 55.9392 46.5477 57.5573 46.8169 59.8948C46.8414 60.107 46.8496 60.3213 46.8519 60.6214ZM44.9524 60.3585C44.8411 60.0219 44.7832 59.6512 44.6082 59.3554C44.1726 58.6192 43.5079 58.2578 42.6753 58.402C41.8497 58.545 41.3416 59.1069 41.0981 59.9273C40.8478 60.7705 41.214 61.4043 41.8017 61.9094C42.9637 62.9081 44.3583 62.2774 44.9524 60.3585ZM63.9684 55.9666C64.1093 56.9746 63.7993 57.4401 62.8521 57.3156C62.5466 57.2754 62.2309 57.3088 61.9204 57.3228C61.3321 57.3493 61.3169 57.7878 61.3095 58.2425C61.3018 58.7156 61.3589 59.1188 61.9457 59.1246C62.6367 59.1314 63.3276 59.1533 64.0185 59.1516C64.6295 59.1502 64.9943 59.3625 64.9999 60.0838C65.0056 60.8102 64.7204 61.1434 64.0179 61.1317C63.3619 61.1208 62.7049 61.1698 62.049 61.1563C61.34 61.1418 61.3137 61.6039 61.306 62.1564C61.2977 62.7444 61.5105 63.0327 62.0938 62.9998C62.4039 62.9823 62.7171 63.0168 63.0262 62.9918C63.7346 62.9343 64.006 63.2478 64.0121 63.9935C64.0184 64.7663 63.6869 65.0073 63.0089 64.9881C62.1111 64.9626 61.2123 64.9643 60.3141 64.9734C59.6795 64.9798 59.3635 64.7208 59.37 64.0162C59.3932 61.4668 59.3953 58.917 59.3896 56.3674C59.3881 55.6908 59.6479 55.3946 60.3209 55.4204C61.2525 55.456 62.1864 55.4189 63.1192 55.4267C63.4591 55.4295 63.8351 55.3973 63.9684 55.9666ZM2.23843 55.6054C3.65808 54.8566 5.14417 55.088 5.96953 56.123C6.72257 57.0674 6.64989 58.3819 5.74515 59.6934C5.1038 60.6231 4.43579 61.5329 3.73085 62.52C4.18067 62.7887 4.62727 62.6372 5.04034 62.641C6.68822 62.6561 6.76764 62.7543 6.37059 64.6356C4.81891 64.6356 3.23935 64.6767 1.66333 64.6172C0.942415 64.59 0.76223 63.5083 1.35653 62.6166C2.14144 61.4389 2.98904 60.3064 3.79977 59.1471C4.02175 58.8296 4.22759 58.4962 4.40578 58.1505C4.59737 57.7789 4.50646 57.4483 4.15318 57.2301C3.80704 57.0162 3.50166 57.084 3.23855 57.4089C3.0457 57.647 3.00941 58.0537 2.64393 58.1039C2.20462 58.1642 1.70137 58.2891 1.36309 57.9239C1.05782 57.5943 1.31529 57.1753 1.44102 56.8118C1.59465 56.3676 1.83565 55.977 2.23843 55.6054ZM35.1722 60.9372C35.2172 59.3798 35.2634 57.9071 35.2261 56.4367C35.2049 55.6003 35.5649 55.4085 36.2863 55.4047C37.0261 55.4008 37.243 55.7263 37.2361 56.4428C37.2119 58.9562 37.2125 61.4701 37.2292 63.9837C37.2337 64.6584 36.9836 64.9789 36.3258 64.9884C35.7192 64.9971 35.189 64.9544 35.2357 64.1076C35.2691 63.5023 34.9592 63.2712 34.41 63.2865C33.9266 63.3 33.4424 63.3079 32.9592 63.2933C32.3981 63.2764 32.0146 63.4286 32.0238 64.1189C32.0347 64.9435 31.482 64.9895 30.8839 64.9821C30.2378 64.9742 30.07 64.5852 30.0769 63.9982C30.1152 60.7235 29.7845 61.3542 32.513 61.2564C33.3875 61.225 34.3009 61.5348 35.1722 60.9372ZM30.7178 30.6351C32.2089 30.6555 32.2103 30.6555 32.215 32.0554C32.2183 33.0245 32.204 33.9939 32.2221 34.9627C32.2347 35.6402 31.9552 35.9457 31.2935 35.9324C30.2233 35.9108 29.1522 35.9141 28.0819 35.9306C27.4331 35.9405 27.1371 35.6606 27.1527 34.9668C27.1785 33.8187 27.1764 32.6694 27.1574 31.5211C27.1467 30.8774 27.4137 30.6147 28.0268 30.6313C28.8896 30.6546 29.7535 30.6359 30.7178 30.6351ZM33.7866 33.7175C33.7933 30.6319 33.7934 30.6196 36.6886 30.6403C39.0068 30.657 38.8336 30.2848 38.8324 32.8976C38.832 33.6153 38.8291 34.3329 38.8299 35.0506C38.8305 35.6725 38.5499 35.9571 37.9367 35.9425C37.005 35.9202 36.0682 35.8823 35.1414 35.9561C34.1228 36.0373 33.6266 35.695 33.7824 34.5763C33.8166 34.3303 33.7869 34.0746 33.7866 33.7175ZM33.8622 24.0908C35.3661 23.4604 36.8774 23.8043 38.3698 23.7948C38.809 23.792 38.8288 24.2672 38.8305 24.6262C38.8358 25.7726 38.821 26.919 38.8201 28.0654C38.8195 28.7165 38.5624 29.0561 37.8879 29.039C36.8199 29.0121 35.7506 29.0176 34.6824 29.038C34.0114 29.0509 33.7662 28.7282 33.7845 28.0547C33.8194 26.7662 33.8164 25.4767 33.8622 24.0908ZM27.1575 25.1214C27.0409 24.0651 27.3741 23.6353 28.3617 23.7153C29.3559 23.7959 30.361 23.7536 31.3607 23.7311C31.9859 23.717 32.2276 24.012 32.2194 24.6369C32.2049 25.7478 32.204 26.8593 32.2215 27.9702C32.2327 28.6748 31.9729 29.0405 31.2521 29.0252C30.2179 29.0033 29.1824 29.0005 28.1486 29.0315C27.3714 29.0547 27.1184 28.6747 27.1498 27.9138C27.1869 27.0193 27.1578 26.122 27.1575 25.1214ZM30.1404 55.8367C31.4819 54.9674 32.0435 55.2738 32.047 56.7724C32.0486 57.4503 32.0212 58.1293 32.0497 58.8058C32.0814 59.5579 31.6736 59.6799 31.0746 59.6809C30.4795 59.6819 30.0593 59.568 30.08 58.8181C30.1066 57.8557 30.1049 56.8925 30.1404 55.8367ZM19.9012 51.4957H20.8947V50.1191H19.9012V51.4957ZM20.3703 46.8497L18.19 49.2587H22.7715L20.3703 46.8497Z" stroke="#0A9786"/>
</svg>
