<svg width="350" height="76" viewBox="0 0 350 76" fill="none" xmlns="http://www.w3.org/2000/svg">
<path d="M116.796 68.1492C113.156 70.2531 109.606 72.2704 106.098 74.3563C104.708 75.1823 103.478 75.233 102.037 74.3942C92.4646 68.8233 82.8636 63.3022 73.2575 57.7902C71.6888 56.8901 70.9901 55.6489 71.0001 53.8215C71.0502 44.7018 71.0286 35.5818 71.0483 26.4619C71.0501 25.6487 70.8781 24.7783 71.5885 23.9426C73.3461 24.7562 75.0073 25.7522 76.5852 26.8856C77.3846 27.4599 77.2495 28.3705 77.2479 29.2015C77.2343 35.9665 77.6391 42.7336 77.2332 49.4955C77.0924 51.8407 77.9733 53.3429 80.0674 54.4893C86.7389 58.1412 93.3901 61.8392 99.7971 65.9473C102.532 67.7011 105.209 67.808 107.973 66.0747C114.706 61.8535 121.652 57.9981 128.601 54.1526C130.163 53.2882 130.805 52.1613 130.789 50.3807C130.725 43.4434 130.797 36.5049 130.738 29.5676C130.722 27.7201 131.317 26.4765 133.086 25.7623C134.209 25.3093 135.24 24.6308 136.29 24.0653C137.08 24.7437 136.996 25.5533 136.997 26.3153C137.007 35.5471 136.985 44.779 137.024 54.0107C137.031 55.7819 136.313 56.9298 134.789 57.7958C128.808 61.1929 122.863 64.6533 116.796 68.1492Z" fill="#0A9786"/>
<path d="M81.7207 26.2361C81.6866 24.8549 82.4119 24.1375 83.3874 23.5743C89.6392 19.9644 95.9017 16.3724 102.129 12.7204C103.514 11.9082 104.668 12.0206 106.023 12.8206C112.094 16.4062 118.203 19.9272 124.319 23.4349C125.602 24.1701 126.304 25.1054 126.301 26.6465C126.286 33.9189 126.333 41.1913 126.339 48.4638C126.34 50.142 125.772 50.6062 124.048 50.5169C123.212 50.4735 122.372 50.447 121.537 50.4806C119.789 50.5511 119.352 50.1843 119.349 48.3765C119.339 42.443 119.312 36.5088 119.393 30.5762C119.414 28.9696 118.842 27.9667 117.462 27.1977C113.551 25.0185 109.666 22.793 105.811 20.5164C104.555 19.7745 103.477 19.7641 102.222 20.5094C98.4216 22.7662 94.5917 24.9736 90.7411 27.1429C89.2896 27.9607 88.7791 29.1382 88.7986 30.7392C88.8668 36.3358 88.8961 41.9331 88.9084 47.5302C88.914 50.101 88.3989 50.5528 85.822 50.4412C85.3747 50.4218 84.9267 50.4199 84.4791 50.4068C82.2953 50.3428 81.7352 49.791 81.7298 47.5477C81.7128 40.4946 81.7195 33.4415 81.7207 26.2361Z" fill="#0A9786"/>
<path d="M109.389 2.56012C118.627 7.86707 127.758 13.1144 137.212 18.5484C135.263 20.0907 133.659 21.0756 131.919 21.7912C130.982 22.1767 130.08 21.6972 129.229 21.2055C121.626 16.8103 113.994 12.4646 106.42 8.02025C104.796 7.06712 103.475 6.93885 101.784 7.94344C94.8128 12.0844 87.748 16.0668 80.7496 20.1618C76.425 22.6922 75.8325 22.3552 71.3587 18.7062C71.4806 18.0577 72.0786 17.9016 72.5383 17.6367C82.3283 11.9954 92.1396 6.39084 101.905 0.706654C103.453 -0.194834 104.758 -0.288091 106.229 0.743361C107.187 1.41455 108.26 1.9205 109.389 2.56012Z" fill="#0A9786"/>
<path d="M100.274 46.1546C102.687 46.1864 102.689 46.1864 102.697 48.3666C102.702 49.8759 102.679 51.3858 102.709 52.8946C102.729 53.9497 102.277 54.4255 101.205 54.4048C99.4731 54.3711 97.7394 54.3763 96.0068 54.4019C94.9567 54.4174 94.4775 53.9815 94.5027 52.9008C94.5445 51.1129 94.5412 49.3229 94.5104 47.5345C94.4931 46.532 94.9252 46.1228 95.9177 46.1486C97.3143 46.185 98.7126 46.1559 100.274 46.1546Z" fill="#0A9786"/>
<path d="M105.241 50.9552C105.252 46.1497 105.252 46.1305 109.938 46.1628C113.691 46.1888 113.41 45.6091 113.409 49.6784C113.408 50.7961 113.403 51.9137 113.404 53.0314C113.405 54.0001 112.951 54.4434 111.959 54.4205C110.451 54.3858 108.934 54.3268 107.434 54.4418C105.785 54.5682 104.982 54.0351 105.234 52.2928C105.29 51.9096 105.241 51.5115 105.241 50.9552Z" fill="#0A9786"/>
<path d="M105.364 35.962C107.798 34.9802 110.244 35.5159 112.66 35.5011C113.371 35.4968 113.403 36.2367 113.406 36.796C113.414 38.5813 113.39 40.3668 113.389 42.1521C113.388 43.1663 112.972 43.6951 111.88 43.6686C110.151 43.6266 108.42 43.6351 106.691 43.667C105.605 43.687 105.208 43.1844 105.238 42.1355C105.294 40.1289 105.289 38.1205 105.364 35.962Z" fill="#0A9786"/>
<path d="M94.5107 37.5672C94.3219 35.9221 94.8613 35.2527 96.4599 35.3774C98.0692 35.5029 99.6962 35.4371 101.314 35.402C102.326 35.38 102.717 35.8394 102.704 36.8127C102.681 38.5429 102.679 40.274 102.708 42.0041C102.726 43.1015 102.305 43.6709 101.138 43.6472C99.4645 43.6131 97.7883 43.6088 96.1149 43.6569C94.8569 43.6931 94.4473 43.1012 94.4982 41.9162C94.5582 40.5232 94.5112 39.1256 94.5107 37.5672Z" fill="#0A9786"/>
<path d="M252.846 50.1649C251.812 51.5099 251.911 53.6805 249.571 53.658C248.307 53.6459 247.412 53.3462 246.844 52.1089C245.897 50.0466 244.83 48.0395 243.418 46.0268C243.418 48.1623 243.38 50.2987 243.431 52.433C243.467 53.9087 242.802 54.4313 241.371 54.4308C239.849 54.4302 239.648 53.5935 239.657 52.3627C239.688 47.814 239.651 43.2649 239.684 38.7162C239.69 37.9242 239.343 36.7909 240.65 36.6567C241.866 36.5319 243.196 36.18 243.935 37.7615C245.379 40.8502 246.896 43.905 248.399 46.966C248.629 47.4342 248.747 47.9911 249.504 48.4265C251.058 45.3355 252.603 42.2594 254.15 39.1842C254.451 38.5869 254.72 37.9696 255.07 37.4019C255.841 36.1477 257.091 36.5363 258.154 36.6989C259.169 36.8541 258.863 37.8353 258.865 38.5213C258.877 41.799 258.826 45.0772 258.863 48.3544C258.877 49.6153 258.442 50.1608 257.119 50.1489C255.833 50.1372 255.267 49.6612 255.344 48.3709C255.391 47.5787 255.353 46.7815 255.051 45.8729C254.339 47.2588 253.626 48.6446 252.846 50.1649Z" fill="#0A9786"/>
<path d="M192.779 43.9523C192.277 41.7297 191.097 40.2761 189.012 39.7499C187.764 39.435 186.635 39.608 186.857 41.3463C187.068 43.0005 186.208 43.4007 184.767 43.445C183.105 43.496 182.932 42.5288 182.986 41.248C183.028 40.2457 183.043 39.2365 182.974 38.2369C182.891 37.0239 183.067 35.986 184.448 35.5317C183.181 33.5546 181.848 32.152 179.366 32.4058C177.613 32.585 176.568 31.5704 176.425 29.8303C176.161 26.6274 176.127 23.4165 176.438 20.2123C176.602 18.5311 177.597 17.7182 179.256 17.7157C183.406 17.7096 187.558 17.674 191.707 17.7434C193.699 17.7768 194.776 18.8975 194.827 20.9261C194.897 23.7358 194.902 26.5502 194.826 29.3596C194.769 31.4481 193.742 32.5513 191.676 32.3888C189.157 32.1907 187.897 33.5629 186.727 35.5625C187.691 36.0922 188.69 36.0878 189.643 36.2741C195.2 37.3594 196.934 41.2739 196.764 45.685C196.588 50.2837 192.984 53.6576 188.322 53.7183C181.936 53.8014 183.181 54.6329 182.959 48.548C182.893 46.7396 183.587 46.1495 185.307 46.2987C186.385 46.3921 186.812 46.8029 186.869 47.9021C186.975 49.9083 187.529 50.2628 189.491 49.8317C192.028 49.2741 193.26 47.1564 192.779 43.9523ZM189.304 31.684C189.831 31.6119 190.357 31.507 190.888 31.4733C193.367 31.3161 193.797 30.8877 193.805 28.4569C193.812 26.0486 193.794 23.6402 193.804 21.2319C193.81 19.5972 193.082 18.7567 191.381 18.759C187.568 18.7642 183.754 18.7343 179.942 18.6874C178.118 18.665 177.203 19.492 177.213 21.3391C177.226 23.8143 177.224 26.2897 177.209 28.7648C177.198 30.5481 177.934 31.5906 179.844 31.4589C181.765 31.3264 183.189 32.1174 184.291 33.6568C184.622 34.1195 184.906 34.7219 185.661 34.8082C186.903 33.9723 187.459 32.3227 189.304 31.684Z" fill="#0A9786"/>
<path d="M163.285 41.5602C163.287 40.3572 163.235 39.3505 163.306 38.3525C163.367 37.4959 162.88 36.2908 164.214 36.0211C165.462 35.7688 166.721 35.7155 167.616 37.025C169.389 39.6182 171.232 42.1631 173.057 44.7206C173.427 45.2381 173.842 45.7229 174.563 46.6374C174.563 43.4646 174.603 40.8146 174.546 38.1666C174.517 36.7747 174.737 35.8701 176.465 35.8696C178.127 35.8692 178.456 36.6304 178.434 38.0935C178.368 42.5053 178.439 46.9191 178.386 51.3313C178.376 52.1676 178.938 53.4965 177.645 53.7085C176.292 53.9301 174.8 54.2458 173.759 52.5578C171.972 49.6599 169.954 46.9039 168.029 44.0916C167.856 43.8384 167.647 43.6093 167.107 42.9342C167.107 44.9518 167.076 46.4636 167.116 47.9735C167.154 49.4245 166.383 49.7549 165.091 49.743C163.822 49.7313 163.26 49.2817 163.29 47.9779C163.337 45.9065 163.292 43.8329 163.285 41.5602Z" fill="#0A9786"/>
<path d="M236.838 46.2681C236.194 51.586 232.51 54.6984 228.062 53.8213C224.182 53.0562 221.402 49.2849 221.769 45.2842C222.183 40.7782 225.296 37.5438 229.222 37.5417C233.157 37.5397 236.249 40.5563 236.77 44.9137C236.818 45.3094 236.834 45.7088 236.838 46.2681ZM233.158 45.7781C232.942 45.1506 232.83 44.4597 232.491 43.9082C231.647 42.5357 230.359 41.8621 228.746 42.1309C227.146 42.3975 226.162 43.4449 225.69 44.9744C225.205 46.5462 225.915 47.7276 227.053 48.6693C229.305 50.5311 232.007 49.3553 233.158 45.7781Z" fill="#0A9786"/>
<path d="M270.001 37.5906C270.274 39.4698 269.674 40.3375 267.838 40.1054C267.247 40.0306 266.635 40.0929 266.033 40.1189C264.893 40.1682 264.864 40.9857 264.85 41.8335C264.835 42.7153 264.945 43.4669 266.082 43.4777C267.421 43.4904 268.76 43.5312 270.098 43.5282C271.282 43.5255 271.989 43.9213 272 45.2658C272.011 46.62 271.458 47.2411 270.097 47.2194C268.826 47.199 267.553 47.2903 266.282 47.2653C264.909 47.2383 264.858 48.0996 264.843 49.1296C264.827 50.2257 265.239 50.7632 266.369 50.7019C266.97 50.6692 267.577 50.7336 268.176 50.6868C269.548 50.5797 270.074 51.1641 270.086 52.5543C270.098 53.9948 269.456 54.4442 268.142 54.4083C266.403 54.3607 264.661 54.364 262.921 54.381C261.691 54.3929 261.079 53.9101 261.092 52.5966C261.137 47.844 261.141 43.0908 261.13 38.3379C261.127 37.0766 261.63 36.5245 262.934 36.5724C264.739 36.6388 266.549 36.5698 268.356 36.5842C269.014 36.5895 269.743 36.5295 270.001 37.5906Z" fill="#0A9786"/>
<path d="M150.399 36.9175C153.15 35.5216 156.029 35.9531 157.628 37.8825C159.087 39.6429 158.947 42.0933 157.194 44.5382C155.951 46.2714 154.657 47.9674 153.291 49.8075C154.163 50.3084 155.028 50.0261 155.828 50.0331C159.021 50.0612 159.175 50.2444 158.406 53.7514C155.399 53.7514 152.339 53.828 149.285 53.7171C147.888 53.6664 147.539 51.6499 148.691 49.9876C150.212 47.7922 151.854 45.6811 153.425 43.5198C153.855 42.928 154.253 42.3064 154.599 41.6621C154.97 40.9693 154.794 40.353 154.109 39.9462C153.439 39.5475 152.847 39.6739 152.337 40.2796C151.964 40.7235 151.893 41.4815 151.185 41.5751C150.334 41.6876 149.359 41.9204 148.703 41.2396C148.112 40.6252 148.611 39.8442 148.854 39.1665C149.152 38.3384 149.619 37.6103 150.399 36.9175Z" fill="#0A9786"/>
<path d="M214.209 46.8571C214.296 43.9539 214.385 41.2085 214.313 38.4673C214.272 36.9082 214.97 36.5506 216.367 36.5435C217.8 36.5362 218.221 37.1431 218.207 38.4787C218.161 43.1642 218.162 47.8505 218.194 52.5362C218.203 53.7941 217.718 54.3914 216.444 54.4092C215.269 54.4255 214.241 54.3458 214.332 52.7673C214.396 51.6389 213.796 51.208 212.732 51.2365C211.795 51.2617 210.857 51.2764 209.921 51.2493C208.834 51.2178 208.091 51.5014 208.109 52.7884C208.13 54.3255 207.059 54.4112 205.9 54.3975C204.648 54.3827 204.323 53.6575 204.336 52.5633C204.411 46.4586 203.77 47.6344 209.056 47.4521C210.751 47.3936 212.521 47.9711 214.209 46.8571Z" fill="#0A9786"/>
<path d="M204.46 37.3488C207.059 35.7283 208.147 36.2993 208.154 39.093C208.157 40.3568 208.104 41.6225 208.159 42.8837C208.22 44.2858 207.43 44.5132 206.27 44.515C205.116 44.5169 204.302 44.3046 204.342 42.9065C204.394 41.1125 204.391 39.317 204.46 37.3488Z" fill="#0A9786"/>
<path fill-rule="evenodd" clip-rule="evenodd" d="M181.092 25.5139V29.8979H189.968V25.5139H189.541V29.4702H186.867V26.3693H184.3V29.4702H181.52V25.5139H181.092ZM186.546 29.2563H184.621V26.6901H186.546V29.2563Z" fill="#0A9786"/>
<path fill-rule="evenodd" clip-rule="evenodd" d="M191.145 25.5139L188.685 23.0547V20.5954H188.257V22.52L185.53 19.8469L180.29 25.5139H181.092H181.52H189.541H189.968H191.145ZM181.306 25.0862L185.53 20.5954L190.182 25.0862H181.306Z" fill="#0A9786"/>
</svg>
