<svg width="411" height="173" viewBox="0 0 411 173" fill="none" xmlns="http://www.w3.org/2000/svg">
<path d="M374.048 105.948C372.057 108.54 372.248 112.723 367.738 112.68C365.302 112.656 363.578 112.079 362.483 109.695C360.658 105.72 358.602 101.852 355.881 97.9736C355.881 102.089 355.807 106.206 355.906 110.319C355.975 113.163 354.694 114.17 351.935 114.169C349.003 114.168 348.616 112.555 348.632 110.184C348.693 101.418 348.621 92.6511 348.684 83.8853C348.695 82.359 348.026 80.1749 350.546 79.9165C352.89 79.6759 355.452 78.9978 356.877 82.0455C359.66 87.9978 362.583 93.8847 365.479 99.7837C365.922 100.686 366.15 101.759 367.609 102.598C370.603 96.6414 373.581 90.7135 376.563 84.7872C377.142 83.6361 377.661 82.4465 378.334 81.3525C379.821 78.9355 382.23 79.6845 384.278 79.9976C386.234 80.2967 385.644 82.1877 385.649 83.5097C385.672 89.8262 385.573 96.1436 385.644 102.459C385.671 104.889 384.834 105.94 382.283 105.917C379.806 105.895 378.714 104.977 378.862 102.491C378.954 100.964 378.879 99.428 378.299 97.6771C376.925 100.348 375.552 103.018 374.048 105.948Z" fill="#0A9786"/>
<path d="M258.293 93.976C257.326 89.6929 255.052 86.8916 251.034 85.8775C248.629 85.2706 246.453 85.604 246.881 88.954C247.288 92.1418 245.63 92.913 242.853 92.9984C239.651 93.0967 239.317 91.2329 239.421 88.7646C239.501 86.8331 239.531 84.8882 239.398 82.9619C239.237 80.6243 239.578 78.6241 242.238 77.7486C239.796 73.9385 237.229 71.2355 232.444 71.7247C229.067 72.07 227.053 70.1148 226.777 66.7615C226.269 60.5891 226.202 54.4012 226.803 48.2264C227.119 44.9865 229.036 43.42 232.233 43.4153C240.231 43.4035 248.231 43.3348 256.227 43.4686C260.065 43.5329 262.142 45.6926 262.24 49.602C262.375 55.0166 262.384 60.4403 262.237 65.8544C262.128 69.879 260.149 72.0051 256.168 71.6919C251.314 71.3101 248.886 73.9545 246.631 77.808C248.488 78.8288 250.413 78.8204 252.251 79.1793C262.959 81.2707 266.3 88.8145 265.973 97.3153C265.633 106.177 258.689 112.679 249.705 112.796C237.399 112.956 239.797 114.559 239.369 102.833C239.242 99.3475 240.58 98.2102 243.894 98.4977C245.97 98.6779 246.793 99.4694 246.905 101.588C247.109 105.454 248.176 106.137 251.956 105.306C256.846 104.232 259.221 100.151 258.293 93.976ZM251.596 70.3336C252.613 70.1947 253.626 69.9925 254.648 69.9277C259.427 69.6247 260.256 68.7992 260.27 64.1146C260.285 59.4736 260.25 54.8324 260.268 50.1913C260.28 47.0411 258.878 45.4213 255.599 45.4258C248.251 45.4357 240.902 45.3781 233.554 45.2878C230.039 45.2447 228.277 46.8383 228.296 50.3979C228.322 55.1679 228.317 59.9382 228.288 64.7081C228.267 68.1447 229.686 70.1537 233.367 69.8999C237.069 69.6446 239.812 71.169 241.936 74.1355C242.575 75.0271 243.121 76.1881 244.575 76.3544C246.97 74.7434 248.042 71.5645 251.596 70.3336Z" fill="#0A9786"/>
<path d="M201.455 89.3665C201.458 87.0481 201.358 85.1081 201.496 83.185C201.614 81.5341 200.674 79.2119 203.245 78.692C205.65 78.2058 208.076 78.1031 209.801 80.6266C213.217 85.6241 216.771 90.5284 220.287 95.457C220.999 96.4543 221.799 97.3884 223.188 99.1508C223.188 93.0365 223.266 87.9296 223.157 82.8268C223.099 80.1443 223.525 78.401 226.854 78.4001C230.058 78.3993 230.692 79.8663 230.649 82.6859C230.522 91.1879 230.659 99.6937 230.557 108.196C230.537 109.808 231.62 112.369 229.128 112.778C226.522 113.205 223.646 113.813 221.64 110.56C218.196 104.976 214.308 99.6643 210.597 94.2448C210.263 93.7568 209.861 93.3154 208.82 92.0144C208.82 95.9026 208.761 98.8159 208.837 101.726C208.911 104.522 207.425 105.159 204.935 105.136C202.491 105.113 201.406 104.247 201.464 101.734C201.556 97.7423 201.468 93.7462 201.455 89.3665Z" fill="#0A9786"/>
<path d="M343.2 98.4388C341.959 108.687 334.859 114.685 326.288 112.995C318.811 111.52 313.454 104.252 314.161 96.5426C314.957 87.8591 320.957 81.6259 328.522 81.6221C336.107 81.6182 342.064 87.4314 343.07 95.8286C343.161 96.5911 343.192 97.361 343.2 98.4388ZM336.108 97.4944C335.692 96.2852 335.476 94.9537 334.823 93.891C333.196 91.246 330.714 89.9478 327.606 90.4659C324.523 90.9796 322.626 92.9981 321.717 95.9456C320.782 98.9746 322.149 101.251 324.344 103.066C328.682 106.654 333.889 104.388 336.108 97.4944Z" fill="#0A9786"/>
<path d="M407.109 81.7166C407.635 85.338 406.478 87.0101 402.941 86.5629C401.801 86.4187 400.622 86.5387 399.462 86.5889C397.266 86.6839 397.209 88.2592 397.181 89.893C397.153 91.5924 397.366 93.0408 399.557 93.0616C402.137 93.086 404.717 93.1648 407.296 93.1589C409.578 93.1537 410.94 93.9164 410.961 96.5075C410.982 99.1172 409.917 100.314 407.294 100.272C404.845 100.233 402.392 100.409 399.943 100.361C397.296 100.309 397.197 101.969 397.168 103.953C397.137 106.066 397.932 107.102 400.11 106.983C401.268 106.921 402.437 107.045 403.591 106.954C406.236 106.748 407.25 107.874 407.272 110.553C407.296 113.329 406.058 114.195 403.527 114.126C400.175 114.034 396.819 114.041 393.465 114.073C391.095 114.096 389.916 113.166 389.94 110.635C390.026 101.476 390.035 92.316 390.013 83.1566C390.007 80.7261 390.978 79.662 393.49 79.7544C396.969 79.8823 400.456 79.7493 403.939 79.7771C405.208 79.7872 406.612 79.6716 407.109 81.7166Z" fill="#0A9786"/>
<path d="M176.623 80.419C181.924 77.7291 187.473 78.5605 190.554 82.2788C193.366 85.6713 193.095 90.3935 189.717 95.1051C187.322 98.445 184.828 101.714 182.196 105.26C183.875 106.225 185.543 105.681 187.085 105.694C193.238 105.748 193.534 106.101 192.052 112.86C186.258 112.86 180.361 113.008 174.476 112.794C171.784 112.696 171.112 108.81 173.331 105.607C176.261 101.376 179.426 97.3075 182.453 93.1424C183.282 92.0021 184.05 90.8041 184.716 89.5624C185.431 88.2274 185.092 87.0397 183.773 86.2557C182.48 85.4875 181.34 85.7309 180.358 86.8982C179.638 87.7537 179.502 89.2144 178.137 89.3948C176.497 89.6117 174.618 90.0602 173.355 88.7483C172.215 87.5643 173.177 86.0591 173.646 84.7531C174.22 83.1574 175.119 81.7542 176.623 80.419Z" fill="#0A9786"/>
<path d="M299.591 99.5736C299.759 93.9787 299.931 88.688 299.792 83.4054C299.713 80.4009 301.057 79.7118 303.751 79.6981C306.513 79.6841 307.323 80.8536 307.297 83.4275C307.206 92.4569 307.209 101.488 307.271 110.518C307.288 112.942 306.354 114.093 303.898 114.127C301.633 114.159 299.654 114.005 299.828 110.963C299.953 108.789 298.795 107.958 296.745 108.013C294.94 108.062 293.132 108.09 291.328 108.038C289.233 107.977 287.801 108.524 287.835 111.004C287.876 113.966 285.812 114.131 283.579 114.105C281.167 114.076 280.54 112.679 280.566 110.57C280.709 98.8057 279.474 101.072 289.662 100.72C292.927 100.608 296.338 101.72 299.591 99.5736Z" fill="#0A9786"/>
<path d="M280.803 81.2502C285.812 78.1274 287.909 79.2278 287.922 84.6116C287.928 87.0469 287.826 89.4862 287.932 91.9166C288.051 94.6185 286.528 95.0569 284.291 95.0604C282.069 95.0639 280.5 94.6548 280.578 91.9607C280.677 88.5034 280.671 85.0431 280.803 81.2502Z" fill="#0A9786"/>
<path fill-rule="evenodd" clip-rule="evenodd" d="M235.771 58.443V66.8913H252.877V58.443H252.052V66.067H246.9V60.0914H241.954V66.067H236.595V58.443H235.771ZM246.282 65.6549H242.572V60.7096H246.282V65.6549Z" fill="#0A9786"/>
<path fill-rule="evenodd" clip-rule="evenodd" d="M255.144 58.443L250.404 53.7037V48.9644H249.579V52.6734L244.324 47.522L234.225 58.443H235.771H236.595H252.052H252.877H255.144ZM236.183 57.6187L244.324 48.9644L253.289 57.6187H236.183Z" fill="#0A9786"/>
<path d="M235.771 58.443H234.225L244.324 47.522L249.579 52.6734V48.9644H250.404V53.7037L255.144 58.443H252.877M235.771 58.443V66.8913H252.877V58.443M235.771 58.443H236.595M252.877 58.443H252.052M236.595 58.443V66.067H241.954V60.0914H246.9V66.067H252.052V58.443M236.595 58.443H252.052M242.572 65.6549H246.282V60.7096H242.572V65.6549ZM244.324 48.9644L236.183 57.6187H253.289L244.324 48.9644Z" stroke="#0A9786"/>
<path d="M105.637 157.198C97.2393 162.051 89.0522 166.704 80.9591 171.515C77.754 173.421 74.9153 173.538 71.591 171.603C49.5117 158.753 27.3655 146.017 5.2074 133.303C1.58873 131.227 -0.0228787 128.364 0.000245189 124.148C0.1157 103.112 0.0659281 82.0754 0.111396 61.039C0.115463 59.163 -0.281215 57.1554 1.35742 55.2278C5.41166 57.1045 9.24351 59.4019 12.8831 62.0162C14.7272 63.3409 14.4156 65.4414 14.4117 67.3583C14.3806 82.963 15.3142 98.5722 14.3779 114.17C14.0532 119.579 16.0851 123.044 20.9156 125.689C36.3044 134.112 51.6465 142.643 66.4253 152.119C72.7342 156.164 78.9087 156.411 85.2854 152.412C100.815 142.676 116.836 133.782 132.866 124.912C136.469 122.918 137.95 120.319 137.912 116.212C137.766 100.21 137.932 84.2048 137.796 68.2027C137.76 63.9411 139.13 61.0727 143.212 59.4252C145.801 58.3804 148.18 56.8151 150.602 55.5106C152.425 57.0757 152.232 58.9432 152.234 60.7008C152.256 81.9955 152.206 103.29 152.295 124.585C152.312 128.67 150.656 131.318 147.14 133.316C133.343 141.152 119.63 149.134 105.637 157.198Z" fill="#0A9786"/>
<path d="M24.7288 60.5184C24.6503 57.3323 26.3234 55.6775 28.5733 54.3783C42.9944 46.0515 57.4398 37.7661 71.8039 29.3422C74.9985 27.4687 77.6616 27.7279 80.786 29.5732C94.7894 37.8441 108.882 45.9657 122.99 54.0568C125.947 55.7529 127.569 57.9102 127.561 61.465C127.525 78.2399 127.635 95.0151 127.648 111.79C127.651 115.661 126.34 116.732 122.364 116.526C120.436 116.426 118.499 116.365 116.571 116.442C112.539 116.605 111.532 115.759 111.525 111.589C111.502 97.9022 111.441 84.214 111.625 70.5295C111.675 66.8235 110.355 64.5103 107.172 62.7364C98.1517 57.7097 89.1889 52.5762 80.298 47.3249C77.4005 45.6135 74.9126 45.5895 72.0174 47.3088C63.2524 52.5143 54.418 57.6062 45.5361 62.61C42.1879 64.4963 41.0102 67.2124 41.0552 70.9055C41.2127 83.8151 41.2803 96.7262 41.3084 109.637C41.3214 115.567 40.1333 116.609 34.1893 116.351C33.1576 116.307 32.1241 116.302 31.0917 116.272C26.0544 116.124 24.7623 114.852 24.7498 109.677C24.7106 93.408 24.7262 77.1388 24.7288 60.5184Z" fill="#0A9786"/>
<path d="M88.5514 5.90535C109.861 18.1467 130.921 30.2505 152.73 42.785C148.233 46.3425 144.533 48.6144 140.521 50.2649C138.358 51.1543 136.277 50.0482 134.315 48.914C116.777 38.7757 99.1728 28.7517 81.7019 18.5C77.9552 16.3015 74.9084 16.0056 71.0077 18.3229C54.9282 27.8746 38.6321 37.0607 22.489 46.5065C12.5138 52.3434 11.147 51.566 0.827393 43.149C1.10866 41.6532 2.48806 41.2929 3.54827 40.682C26.1306 27.6694 48.7621 14.7415 71.2867 1.63002C74.859 -0.449417 77.8685 -0.664531 81.2623 1.71469C83.4707 3.26291 85.9463 4.42996 88.5514 5.90535Z" fill="#0A9786"/>
<path d="M67.5244 106.463C73.0918 106.536 73.0971 106.536 73.1147 111.565C73.1269 115.047 73.0736 118.53 73.141 122.01C73.1882 124.444 72.1446 125.541 69.674 125.493C65.6781 125.416 61.6789 125.428 57.6824 125.487C55.2601 125.523 54.1548 124.517 54.213 122.024C54.3093 117.9 54.3017 113.771 54.2306 109.646C54.1908 107.333 55.1876 106.39 57.4769 106.449C60.6984 106.533 63.9238 106.466 67.5244 106.463Z" fill="#0A9786"/>
<path d="M78.9828 117.536C79.0078 106.452 79.0081 106.407 89.8182 106.482C98.4737 106.542 97.827 105.205 97.8225 114.591C97.8212 117.169 97.8103 119.747 97.813 122.326C97.8154 124.56 96.7676 125.582 94.4782 125.53C90.9995 125.45 87.5017 125.313 84.041 125.579C80.2378 125.87 78.3853 124.641 78.9669 120.622C79.0948 119.738 78.9836 118.82 78.9828 117.536Z" fill="#0A9786"/>
<path d="M79.2651 82.9527C84.88 80.688 90.5229 81.9238 96.0953 81.8896C97.7353 81.8796 97.8091 83.5864 97.8153 84.8764C97.8352 88.9945 97.7801 93.113 97.7765 97.2313C97.7744 99.5706 96.8144 100.79 94.2959 100.729C90.3084 100.632 86.3159 100.652 82.3275 100.726C79.822 100.772 78.9065 99.6125 78.9746 97.1929C79.1049 92.5643 79.094 87.9317 79.2651 82.9527Z" fill="#0A9786"/>
<path d="M54.2312 86.6552C53.7956 82.8605 55.0399 81.3164 58.7272 81.604C62.4394 81.8935 66.1923 81.7417 69.9247 81.6607C72.2592 81.61 73.1615 82.6698 73.131 84.9147C73.0769 88.9057 73.0734 92.8988 73.139 96.8895C73.1806 99.4209 72.2107 100.734 69.5192 100.68C65.658 100.601 61.7915 100.591 57.9316 100.702C55.0298 100.786 54.0849 99.4203 54.2024 96.6868C54.3406 93.4736 54.2323 90.2498 54.2312 86.6552Z" fill="#0A9786"/>
</svg>
