<svg width="18" height="18" viewBox="0 0 18 18" fill="none" xmlns="http://www.w3.org/2000/svg">
<path d="M10.9813 11.9394C10.419 12.2771 9.87087 12.6009 9.32899 12.9358C9.11438 13.0684 8.92432 13.0765 8.70173 12.9418C7.22338 12.0476 5.74055 11.1613 4.25693 10.2766C4.01464 10.1321 3.90673 9.93283 3.90828 9.63948C3.91601 8.17559 3.91268 6.71163 3.91572 5.2477C3.91599 5.11715 3.88943 4.97744 3.99915 4.8433C4.27061 4.9739 4.52717 5.13377 4.77087 5.31571C4.89435 5.40789 4.87348 5.55407 4.87322 5.68746C4.87113 6.77339 4.93365 7.85964 4.87095 8.94508C4.84921 9.32153 4.98526 9.56267 5.30869 9.74668C6.33907 10.3329 7.36632 10.9265 8.35586 11.5859C8.77828 11.8675 9.1917 11.8846 9.61866 11.6064C10.6585 10.9288 11.7312 10.3099 12.8044 9.69264C13.0457 9.55388 13.1449 9.37299 13.1424 9.08717C13.1325 7.97359 13.1437 6.85982 13.1346 5.74622C13.1322 5.44966 13.2239 5.25005 13.4972 5.1354C13.6706 5.06269 13.8298 4.95376 13.992 4.86298C14.1141 4.97189 14.1011 5.10185 14.1013 5.22416C14.1028 6.70606 14.0994 8.18798 14.1054 9.66985C14.1065 9.95417 13.9957 10.1384 13.7602 10.2774C12.8365 10.8228 11.9183 11.3782 10.9813 11.9394Z" fill="#0A9786"/>
<path d="M5.56402 5.21148C5.55876 4.98976 5.67078 4.8746 5.82143 4.78419C6.78701 4.20473 7.75422 3.62815 8.71599 3.04193C8.92989 2.91155 9.1082 2.92959 9.3174 3.058C10.255 3.63357 11.1986 4.19876 12.1432 4.76182C12.3412 4.87985 12.4498 5.02998 12.4493 5.27735C12.4469 6.44472 12.4542 7.61211 12.4551 8.77949C12.4553 9.04888 12.3675 9.12339 12.1013 9.10905C11.9723 9.1021 11.8425 9.09783 11.7135 9.10324C11.4435 9.11455 11.376 9.05567 11.3756 8.76548C11.374 7.81302 11.3699 6.86046 11.3823 5.90816C11.3856 5.65025 11.2972 5.48928 11.0841 5.36583C10.4801 5.01603 9.88002 4.65878 9.28472 4.29334C9.09072 4.17425 8.92413 4.17257 8.73029 4.29223C8.14341 4.65448 7.55189 5.00882 6.95719 5.35704C6.73301 5.4883 6.65416 5.67732 6.65717 5.93432C6.66771 6.8327 6.67224 7.73118 6.67412 8.62964C6.67499 9.04229 6.59544 9.11482 6.19746 9.09691C6.12837 9.0938 6.05918 9.09349 5.99005 9.09139C5.65277 9.0811 5.56626 8.99254 5.56542 8.63243C5.5628 7.50027 5.56384 6.3681 5.56402 5.21148Z" fill="#0A9786"/>
<path d="M9.83734 1.41095C11.2641 2.26283 12.6742 3.10514 14.1345 3.97741C13.8334 4.22498 13.5857 4.38308 13.317 4.49794C13.1722 4.55983 13.0329 4.48286 12.9015 4.40393C11.7272 3.69841 10.5485 3.00083 9.37872 2.28742C9.12786 2.13442 8.92386 2.11383 8.66268 2.27509C7.58606 2.9398 6.49493 3.57905 5.41405 4.23639C4.74614 4.64258 4.65463 4.58848 3.96366 4.00275C3.98249 3.89865 4.07485 3.87358 4.14584 3.83106C5.65787 2.92552 7.17319 2.02586 8.68136 1.11343C8.92055 0.968725 9.12206 0.953755 9.34929 1.11933C9.49716 1.22707 9.66291 1.30828 9.83734 1.41095Z" fill="#0A9786"/>
<path d="M14.5285 16.4279C14.3951 16.6083 14.4079 16.8994 14.1059 16.8964C13.9428 16.8947 13.8274 16.8546 13.7541 16.6886C13.6319 16.412 13.4942 16.1429 13.312 15.873C13.312 16.1593 13.3071 16.4459 13.3137 16.7321C13.3183 16.93 13.2326 17.0001 13.0478 17C12.8515 16.9999 12.8256 16.8877 12.8267 16.7227C12.8308 16.1126 12.826 15.5026 12.8302 14.8926C12.8309 14.7863 12.7861 14.6343 12.9548 14.6164C13.1118 14.5996 13.2833 14.5524 13.3788 14.7645C13.5651 15.1787 13.7608 15.5884 13.9547 15.9989C13.9843 16.0617 13.9996 16.1364 14.0973 16.1948C14.2978 15.7802 14.4972 15.3677 14.6968 14.9553C14.7356 14.8752 14.7704 14.7924 14.8154 14.7163C14.915 14.5481 15.0763 14.6002 15.2134 14.622C15.3444 14.6428 15.3049 14.7744 15.3052 14.8664C15.3067 15.306 15.3001 15.7456 15.3049 16.1851C15.3067 16.3542 15.2506 16.4274 15.0798 16.4258C14.914 16.4242 14.8408 16.3604 14.8508 16.1873C14.8569 16.0811 14.8519 15.9742 14.8131 15.8523C14.7211 16.0382 14.6292 16.224 14.5285 16.4279Z" fill="#0A9786"/>
<path d="M6.77789 15.5948C6.71315 15.2967 6.56093 15.1018 6.29188 15.0312C6.13087 14.989 5.98516 15.0122 6.01379 15.2453C6.04104 15.4671 5.93001 15.5208 5.74408 15.5267C5.52973 15.5336 5.50737 15.4039 5.51428 15.2321C5.51969 15.0977 5.52168 14.9623 5.51279 14.8283C5.502 14.6656 5.52481 14.5264 5.70295 14.4655C5.53944 14.2004 5.36751 14.0123 5.04716 14.0463C4.82103 14.0703 4.68619 13.9343 4.66771 13.7009C4.63371 13.2714 4.62923 12.8408 4.66947 12.411C4.69058 12.1856 4.81897 12.0766 5.03303 12.0762C5.56856 12.0754 6.10419 12.0706 6.63958 12.08C6.89658 12.0844 7.03561 12.2347 7.04215 12.5068C7.05122 12.8836 7.05183 13.261 7.042 13.6378C7.0347 13.9179 6.90217 14.0658 6.63561 14.044C6.31059 14.0174 6.14804 14.2015 5.99704 14.4696C6.12143 14.5407 6.25027 14.5401 6.37333 14.5651C7.09031 14.7106 7.31402 15.2356 7.29216 15.8272C7.26936 16.4439 6.80443 16.8963 6.20286 16.9045C5.37889 16.9156 5.53947 17.0271 5.51085 16.2111C5.50235 15.9686 5.59188 15.8894 5.81379 15.9094C5.95283 15.922 6.00793 15.9771 6.01541 16.1245C6.02906 16.3935 6.10054 16.4411 6.35362 16.3833C6.68102 16.3085 6.84002 16.0245 6.77789 15.5948ZM6.32947 13.9495C6.39759 13.9398 6.46544 13.9258 6.53388 13.9212C6.85382 13.9002 6.90933 13.8427 6.9103 13.5167C6.91127 13.1937 6.90893 12.8708 6.91012 12.5478C6.91093 12.3286 6.81707 12.2158 6.59752 12.2162C6.10551 12.2168 5.61347 12.2128 5.12149 12.2066C4.88613 12.2036 4.76812 12.3145 4.76941 12.5622C4.77114 12.8941 4.77079 13.2261 4.76885 13.558C4.76745 13.7972 4.86249 13.937 5.10894 13.9193C5.35683 13.9015 5.54049 14.0076 5.68272 14.2141C5.72547 14.2761 5.76202 14.3569 5.85942 14.3685C6.01976 14.2564 6.09154 14.0352 6.32947 13.9495Z" fill="#0A9786"/>
<path d="M2.97226 15.274C2.97245 15.1127 2.96577 14.9777 2.97497 14.8438C2.98287 14.7289 2.91995 14.5673 3.09213 14.5312C3.25313 14.4973 3.41555 14.4902 3.53106 14.6658C3.75981 15.0136 3.99772 15.3549 4.23318 15.6978C4.28083 15.7672 4.33441 15.8322 4.42743 15.9549C4.42743 15.5294 4.4326 15.174 4.42531 14.8189C4.42148 14.6322 4.44996 14.5109 4.67286 14.5109C4.88737 14.5108 4.92983 14.6129 4.927 14.8091C4.91846 15.4008 4.92765 15.9927 4.92079 16.5844C4.91949 16.6965 4.99198 16.8747 4.8251 16.9032C4.65063 16.9329 4.45807 16.9752 4.32374 16.7489C4.09313 16.3602 3.83283 15.9906 3.58437 15.6135C3.562 15.5795 3.53508 15.5488 3.46539 15.4583C3.46539 15.7288 3.4614 15.9316 3.46653 16.1341C3.47146 16.3287 3.37196 16.373 3.20524 16.3714C3.04158 16.3698 2.96898 16.3095 2.97285 16.1347C2.979 15.8569 2.97309 15.5788 2.97226 15.274Z" fill="#0A9786"/>
<path d="M12.463 15.9053C12.3799 16.6185 11.9045 17.0359 11.3306 16.9183C10.83 16.8157 10.4713 16.3099 10.5186 15.7734C10.5719 15.1691 10.9737 14.7353 11.4802 14.7351C11.988 14.7348 12.3869 15.1393 12.4542 15.7237C12.4603 15.7768 12.4624 15.8303 12.463 15.9053ZM11.9881 15.8396C11.9603 15.7555 11.9458 15.6628 11.9021 15.5889C11.7931 15.4048 11.627 15.3144 11.4188 15.3505C11.2124 15.3863 11.0854 15.5267 11.0245 15.7318C10.9619 15.9426 11.0535 16.1011 11.2004 16.2274C11.4909 16.477 11.8396 16.3193 11.9881 15.8396Z" fill="#0A9786"/>
<path d="M16.7421 14.7416C16.7773 14.9937 16.6998 15.11 16.463 15.0789C16.3867 15.0689 16.3077 15.0772 16.2301 15.0807C16.083 15.0873 16.0792 15.1969 16.0774 15.3106C16.0754 15.4289 16.0897 15.5297 16.2364 15.5311C16.4092 15.5328 16.5819 15.5383 16.7546 15.5379C16.9074 15.5375 16.9986 15.5906 17 15.7709C17.0014 15.9526 16.9301 16.0358 16.7545 16.0329C16.5905 16.0302 16.4262 16.0424 16.2622 16.0391C16.085 16.0355 16.0784 16.151 16.0765 16.2891C16.0744 16.4361 16.1276 16.5082 16.2735 16.5C16.351 16.4956 16.4293 16.5042 16.5066 16.4979C16.6836 16.4836 16.7515 16.5619 16.753 16.7484C16.7546 16.9416 16.6717 17.0018 16.5022 16.997C16.2778 16.9906 16.0531 16.9911 15.8285 16.9934C15.6699 16.995 15.5909 16.9302 15.5925 16.7541C15.5983 16.1167 15.5988 15.4792 15.5974 14.8418C15.597 14.6727 15.662 14.5987 15.8302 14.6051C16.0631 14.614 16.2966 14.6047 16.5298 14.6067C16.6148 14.6074 16.7088 14.5993 16.7421 14.7416Z" fill="#0A9786"/>
<path d="M1.30961 14.6513C1.66452 14.4641 2.03604 14.522 2.24238 14.7808C2.43064 15.0168 2.41247 15.3455 2.18629 15.6733C2.02595 15.9058 1.85895 16.1332 1.68271 16.38C1.79517 16.4472 1.90682 16.4093 2.01009 16.4103C2.42206 16.414 2.44191 16.4386 2.34265 16.9089C1.95473 16.9089 1.55984 16.9192 1.16583 16.9043C0.985604 16.8975 0.940557 16.6271 1.08913 16.4042C1.28536 16.1097 1.49726 15.8266 1.69994 15.5368C1.75544 15.4574 1.8069 15.374 1.85144 15.2876C1.89934 15.1947 1.87661 15.1121 1.78829 15.0575C1.70176 15.0041 1.62541 15.021 1.55964 15.1022C1.51142 15.1618 1.50235 15.2634 1.41098 15.276C1.30116 15.2911 1.17534 15.3223 1.09077 15.231C1.01446 15.1486 1.07882 15.0438 1.11026 14.9529C1.14866 14.8419 1.20891 14.7443 1.30961 14.6513Z" fill="#0A9786"/>
<path d="M9.54305 15.9843C9.55431 15.595 9.56584 15.2268 9.55653 14.8592C9.55123 14.6501 9.64123 14.6021 9.82157 14.6012C10.0065 14.6002 10.0607 14.6816 10.059 14.8607C10.053 15.4891 10.0531 16.1175 10.0573 16.7459C10.0584 16.9146 9.99591 16.9947 9.83144 16.9971C9.67981 16.9993 9.54726 16.9886 9.55894 16.7769C9.56729 16.6256 9.48979 16.5678 9.3525 16.5716C9.23166 16.575 9.1106 16.577 8.9898 16.5733C8.84954 16.5691 8.75366 16.6071 8.75594 16.7797C8.75868 16.9859 8.62049 16.9974 8.47098 16.9955C8.30946 16.9935 8.2675 16.8963 8.26922 16.7495C8.27879 15.9309 8.19613 16.0885 8.87825 16.0641C9.09688 16.0563 9.32523 16.1337 9.54305 15.9843Z" fill="#0A9786"/>
<path d="M8.42945 8.40878C8.80222 8.41388 8.80258 8.41388 8.80376 8.76384C8.80457 9.00613 8.80101 9.24849 8.80552 9.49068C8.80868 9.66006 8.7388 9.73643 8.57338 9.7331C8.30583 9.7277 8.03806 9.72853 7.77047 9.73264C7.60828 9.73513 7.53427 9.66516 7.53817 9.49169C7.54462 9.20468 7.54411 8.91735 7.53935 8.63028C7.53668 8.46935 7.60342 8.40367 7.7567 8.40781C7.97241 8.41365 8.18837 8.40898 8.42945 8.40878Z" fill="#0A9786"/>
<path d="M9.19666 9.17937C9.19833 8.40798 9.19835 8.40489 9.92216 8.41009C10.5017 8.41425 10.4584 8.32121 10.4581 8.9744C10.458 9.15381 10.4573 9.33323 10.4575 9.51264C10.4576 9.66813 10.3875 9.73929 10.2342 9.73562C10.0013 9.73005 9.76706 9.72057 9.53534 9.73903C9.28069 9.75932 9.15666 9.67376 9.19559 9.39407C9.20416 9.33257 9.19672 9.26866 9.19666 9.17937Z" fill="#0A9786"/>
<path d="M9.21556 6.77269C9.59152 6.61509 9.96935 6.70108 10.3425 6.69871C10.4523 6.69801 10.4572 6.81679 10.4576 6.90656C10.4589 7.19314 10.4553 7.47975 10.455 7.76634C10.4549 7.92913 10.3906 8.01402 10.222 8.00976C9.95498 8.00302 9.68766 8.00439 9.42061 8.00951C9.25285 8.01272 9.19156 7.93204 9.19611 7.76367C9.20484 7.44156 9.2041 7.11918 9.21556 6.77269Z" fill="#0A9786"/>
<path d="M7.53938 7.03034C7.51022 6.76627 7.59353 6.65881 7.84042 6.67883C8.08898 6.69898 8.34026 6.68841 8.59017 6.68277C8.74648 6.67924 8.80689 6.753 8.80485 6.90922C8.80123 7.18696 8.80099 7.46484 8.80538 7.74255C8.80817 7.91871 8.74323 8.01012 8.56301 8.0063C8.30448 8.00083 8.04559 8.00014 7.78715 8.00787C7.59286 8.01368 7.52959 7.91867 7.53746 7.72844C7.54671 7.50484 7.53946 7.28049 7.53938 7.03034Z" fill="#0A9786"/>
<path d="M8.2851 14.7092C8.62047 14.4919 8.76087 14.5684 8.76175 14.9431C8.76215 15.1126 8.7553 15.2823 8.76243 15.4515C8.77036 15.6395 8.66841 15.67 8.51865 15.6702C8.36987 15.6705 8.26481 15.642 8.27 15.4545C8.27666 15.2139 8.27624 14.9731 8.2851 14.7092Z" fill="#0A9786"/>
<path fill-rule="evenodd" clip-rule="evenodd" d="M5.26991 13.122V13.71H6.41527V13.122H6.36007V13.6526H6.01508V13.2367H5.68389V13.6526H5.32511V13.122H5.26991ZM5.97368 13.6239H5.72529V13.2798H5.97368V13.6239Z" fill="#0A9786"/>
<path fill-rule="evenodd" clip-rule="evenodd" d="M6.56706 13.122L6.24967 12.7922V12.4624H6.19447V12.7205L5.84259 12.362L5.16641 13.122H5.26991H5.32511H6.36007H6.41527H6.56706ZM5.29751 13.0647L5.84259 12.4624L6.44286 13.0647H5.29751Z" fill="#0A9786"/>
<path d="M5.26991 13.122H5.16641L5.84259 12.362L6.19447 12.7205V12.4624H6.24967V12.7922L6.56706 13.122H6.41527M5.26991 13.122V13.71H6.41527V13.122M5.26991 13.122H5.32511M6.41527 13.122H6.36007M5.32511 13.122V13.6526H5.68389V13.2367H6.01508V13.6526H6.36007V13.122M5.32511 13.122H6.36007M10.9813 11.9394C10.419 12.2771 9.87087 12.6009 9.32899 12.9358C9.11438 13.0684 8.92432 13.0765 8.70173 12.9418C7.22338 12.0476 5.74055 11.1613 4.25693 10.2766C4.01464 10.1321 3.90673 9.93283 3.90828 9.63948C3.91601 8.17559 3.91268 6.71163 3.91572 5.2477C3.91599 5.11715 3.88943 4.97744 3.99915 4.8433C4.27061 4.9739 4.52717 5.13377 4.77087 5.31571C4.89435 5.40789 4.87348 5.55407 4.87322 5.68746C4.87113 6.77339 4.93365 7.85964 4.87095 8.94508C4.84921 9.32153 4.98526 9.56267 5.30869 9.74668C6.33907 10.3329 7.36632 10.9265 8.35586 11.5859C8.77828 11.8675 9.1917 11.8846 9.61866 11.6064C10.6585 10.9288 11.7312 10.3099 12.8044 9.69264C13.0457 9.55388 13.1449 9.37299 13.1424 9.08717C13.1325 7.97359 13.1437 6.85982 13.1346 5.74622C13.1322 5.44966 13.2239 5.25005 13.4972 5.1354C13.6706 5.06269 13.8298 4.95376 13.992 4.86298C14.1141 4.97189 14.1011 5.10185 14.1013 5.22416C14.1028 6.70606 14.0994 8.18798 14.1054 9.66985C14.1065 9.95417 13.9957 10.1384 13.7602 10.2774C12.8365 10.8228 11.9183 11.3782 10.9813 11.9394ZM5.56402 5.21148C5.55876 4.98976 5.67078 4.8746 5.82143 4.78419C6.78701 4.20473 7.75422 3.62815 8.71599 3.04193C8.92989 2.91155 9.1082 2.92959 9.3174 3.058C10.255 3.63357 11.1986 4.19876 12.1432 4.76182C12.3412 4.87985 12.4498 5.02998 12.4493 5.27735C12.4469 6.44472 12.4542 7.61211 12.4551 8.77949C12.4553 9.04888 12.3675 9.12339 12.1013 9.10905C11.9723 9.1021 11.8425 9.09783 11.7135 9.10324C11.4435 9.11455 11.376 9.05567 11.3756 8.76548C11.374 7.81302 11.3699 6.86046 11.3823 5.90816C11.3856 5.65025 11.2972 5.48928 11.0841 5.36583C10.4801 5.01603 9.88002 4.65878 9.28472 4.29334C9.09072 4.17425 8.92413 4.17257 8.73029 4.29223C8.14341 4.65448 7.55189 5.00882 6.95719 5.35704C6.73301 5.4883 6.65416 5.67732 6.65717 5.93432C6.66771 6.8327 6.67224 7.73118 6.67412 8.62964C6.67499 9.04229 6.59544 9.11482 6.19746 9.09691C6.12837 9.0938 6.05918 9.09349 5.99005 9.09139C5.65277 9.0811 5.56626 8.99254 5.56542 8.63243C5.5628 7.50027 5.56384 6.3681 5.56402 5.21148ZM9.83734 1.41095C11.2641 2.26283 12.6742 3.10514 14.1345 3.97741C13.8334 4.22498 13.5857 4.38308 13.317 4.49794C13.1722 4.55983 13.0329 4.48286 12.9015 4.40393C11.7272 3.69841 10.5485 3.00083 9.37872 2.28742C9.12786 2.13442 8.92386 2.11383 8.66268 2.27509C7.58606 2.9398 6.49493 3.57905 5.41405 4.23639C4.74614 4.64258 4.65463 4.58848 3.96366 4.00275C3.98249 3.89865 4.07485 3.87358 4.14584 3.83106C5.65787 2.92552 7.17319 2.02586 8.68136 1.11343C8.92055 0.968725 9.12206 0.953755 9.34929 1.11933C9.49716 1.22707 9.66291 1.30828 9.83734 1.41095ZM14.5285 16.4279C14.3951 16.6083 14.4079 16.8994 14.1059 16.8964C13.9428 16.8947 13.8274 16.8546 13.7541 16.6886C13.6319 16.412 13.4942 16.1429 13.312 15.873C13.312 16.1593 13.3071 16.4459 13.3137 16.7321C13.3183 16.93 13.2326 17.0001 13.0478 17C12.8515 16.9999 12.8256 16.8877 12.8267 16.7227C12.8308 16.1126 12.826 15.5026 12.8302 14.8926C12.8309 14.7863 12.7861 14.6343 12.9548 14.6164C13.1118 14.5996 13.2833 14.5524 13.3788 14.7645C13.5651 15.1787 13.7608 15.5884 13.9547 15.9989C13.9843 16.0617 13.9996 16.1364 14.0973 16.1948C14.2978 15.7802 14.4972 15.3677 14.6968 14.9553C14.7356 14.8752 14.7704 14.7924 14.8154 14.7163C14.915 14.5481 15.0763 14.6002 15.2134 14.622C15.3444 14.6428 15.3049 14.7744 15.3052 14.8664C15.3067 15.306 15.3001 15.7456 15.3049 16.1851C15.3067 16.3542 15.2506 16.4274 15.0798 16.4258C14.914 16.4242 14.8408 16.3604 14.8508 16.1873C14.8569 16.0811 14.8519 15.9742 14.8131 15.8523C14.7211 16.0382 14.6292 16.224 14.5285 16.4279ZM6.77789 15.5948C6.71315 15.2967 6.56093 15.1018 6.29188 15.0312C6.13087 14.989 5.98516 15.0122 6.01379 15.2453C6.04104 15.4671 5.93001 15.5208 5.74408 15.5267C5.52973 15.5336 5.50737 15.4039 5.51428 15.2321C5.51969 15.0977 5.52168 14.9623 5.51279 14.8283C5.502 14.6656 5.52481 14.5264 5.70295 14.4655C5.53944 14.2004 5.36751 14.0123 5.04716 14.0463C4.82103 14.0703 4.68619 13.9343 4.66771 13.7009C4.63371 13.2714 4.62923 12.8408 4.66947 12.411C4.69058 12.1856 4.81897 12.0766 5.03303 12.0762C5.56856 12.0754 6.10419 12.0706 6.63958 12.08C6.89658 12.0844 7.03561 12.2347 7.04215 12.5068C7.05122 12.8836 7.05183 13.261 7.042 13.6378C7.0347 13.9179 6.90217 14.0658 6.63561 14.044C6.31059 14.0174 6.14804 14.2015 5.99704 14.4696C6.12143 14.5407 6.25027 14.5401 6.37333 14.5651C7.09031 14.7106 7.31402 15.2356 7.29216 15.8272C7.26936 16.4439 6.80443 16.8963 6.20286 16.9045C5.37889 16.9156 5.53947 17.0271 5.51085 16.2111C5.50235 15.9686 5.59188 15.8894 5.81379 15.9094C5.95283 15.922 6.00793 15.9771 6.01541 16.1245C6.02906 16.3935 6.10054 16.4411 6.35362 16.3833C6.68102 16.3085 6.84002 16.0245 6.77789 15.5948ZM6.32947 13.9495C6.39759 13.9398 6.46544 13.9258 6.53388 13.9212C6.85382 13.9002 6.90933 13.8427 6.9103 13.5167C6.91127 13.1937 6.90893 12.8708 6.91012 12.5478C6.91093 12.3286 6.81707 12.2158 6.59752 12.2162C6.10551 12.2168 5.61347 12.2128 5.12149 12.2066C4.88613 12.2036 4.76812 12.3145 4.76941 12.5622C4.77114 12.8941 4.77079 13.2261 4.76885 13.558C4.76745 13.7972 4.86249 13.937 5.10894 13.9193C5.35683 13.9015 5.54049 14.0076 5.68272 14.2141C5.72547 14.2761 5.76202 14.3569 5.85942 14.3685C6.01976 14.2564 6.09154 14.0352 6.32947 13.9495ZM2.97226 15.274C2.97245 15.1127 2.96577 14.9777 2.97497 14.8438C2.98287 14.7289 2.91995 14.5673 3.09213 14.5312C3.25313 14.4973 3.41555 14.4902 3.53106 14.6658C3.75981 15.0136 3.99772 15.3549 4.23318 15.6978C4.28083 15.7672 4.33441 15.8322 4.42743 15.9549C4.42743 15.5294 4.4326 15.174 4.42531 14.8189C4.42148 14.6322 4.44996 14.5109 4.67286 14.5109C4.88737 14.5108 4.92983 14.6129 4.927 14.8091C4.91846 15.4008 4.92765 15.9927 4.92079 16.5844C4.91949 16.6965 4.99198 16.8747 4.8251 16.9032C4.65063 16.9329 4.45807 16.9752 4.32374 16.7489C4.09313 16.3602 3.83283 15.9906 3.58437 15.6135C3.562 15.5795 3.53508 15.5488 3.46539 15.4583C3.46539 15.7288 3.4614 15.9316 3.46653 16.1341C3.47146 16.3287 3.37196 16.373 3.20524 16.3714C3.04158 16.3698 2.96898 16.3095 2.97285 16.1347C2.979 15.8569 2.97309 15.5788 2.97226 15.274ZM12.463 15.9053C12.3799 16.6185 11.9045 17.0359 11.3306 16.9183C10.83 16.8157 10.4713 16.3099 10.5186 15.7734C10.5719 15.1691 10.9737 14.7353 11.4802 14.7351C11.988 14.7348 12.3869 15.1393 12.4542 15.7237C12.4603 15.7768 12.4624 15.8303 12.463 15.9053ZM11.9881 15.8396C11.9603 15.7555 11.9458 15.6628 11.9021 15.5889C11.7931 15.4048 11.627 15.3144 11.4188 15.3505C11.2124 15.3863 11.0854 15.5267 11.0245 15.7318C10.9619 15.9426 11.0535 16.1011 11.2004 16.2274C11.4909 16.477 11.8396 16.3193 11.9881 15.8396ZM16.7421 14.7416C16.7773 14.9937 16.6998 15.11 16.463 15.0789C16.3867 15.0689 16.3077 15.0772 16.2301 15.0807C16.083 15.0873 16.0792 15.1969 16.0774 15.3106C16.0754 15.4289 16.0897 15.5297 16.2364 15.5311C16.4092 15.5328 16.5819 15.5383 16.7546 15.5379C16.9074 15.5375 16.9986 15.5906 17 15.7709C17.0014 15.9526 16.9301 16.0358 16.7545 16.0329C16.5905 16.0302 16.4262 16.0424 16.2622 16.0391C16.085 16.0355 16.0784 16.151 16.0765 16.2891C16.0744 16.4361 16.1276 16.5082 16.2735 16.5C16.351 16.4956 16.4293 16.5042 16.5066 16.4979C16.6836 16.4836 16.7515 16.5619 16.753 16.7484C16.7546 16.9416 16.6717 17.0018 16.5022 16.997C16.2778 16.9906 16.0531 16.9911 15.8285 16.9934C15.6699 16.995 15.5909 16.9302 15.5925 16.7541C15.5983 16.1167 15.5988 15.4792 15.5974 14.8418C15.597 14.6727 15.662 14.5987 15.8302 14.6051C16.0631 14.614 16.2966 14.6047 16.5298 14.6067C16.6148 14.6074 16.7088 14.5993 16.7421 14.7416ZM1.30961 14.6513C1.66452 14.4641 2.03604 14.522 2.24238 14.7808C2.43064 15.0168 2.41247 15.3455 2.18629 15.6733C2.02595 15.9058 1.85895 16.1332 1.68271 16.38C1.79517 16.4472 1.90682 16.4093 2.01009 16.4103C2.42206 16.414 2.44191 16.4386 2.34265 16.9089C1.95473 16.9089 1.55984 16.9192 1.16583 16.9043C0.985604 16.8975 0.940557 16.6271 1.08913 16.4042C1.28536 16.1097 1.49726 15.8266 1.69994 15.5368C1.75544 15.4574 1.8069 15.374 1.85144 15.2876C1.89934 15.1947 1.87661 15.1121 1.78829 15.0575C1.70176 15.0041 1.62541 15.021 1.55964 15.1022C1.51142 15.1618 1.50235 15.2634 1.41098 15.276C1.30116 15.2911 1.17534 15.3223 1.09077 15.231C1.01446 15.1486 1.07882 15.0438 1.11026 14.9529C1.14866 14.8419 1.20891 14.7443 1.30961 14.6513ZM9.54305 15.9843C9.55431 15.595 9.56584 15.2268 9.55653 14.8592C9.55123 14.6501 9.64123 14.6021 9.82157 14.6012C10.0065 14.6002 10.0607 14.6816 10.059 14.8607C10.053 15.4891 10.0531 16.1175 10.0573 16.7459C10.0584 16.9146 9.99591 16.9947 9.83144 16.9971C9.67981 16.9993 9.54726 16.9886 9.55894 16.7769C9.56729 16.6256 9.48979 16.5678 9.3525 16.5716C9.23166 16.575 9.1106 16.577 8.9898 16.5733C8.84954 16.5691 8.75366 16.6071 8.75594 16.7797C8.75868 16.9859 8.62049 16.9974 8.47098 16.9955C8.30946 16.9935 8.2675 16.8963 8.26922 16.7495C8.27879 15.9309 8.19613 16.0885 8.87825 16.0641C9.09688 16.0563 9.32523 16.1337 9.54305 15.9843ZM8.42945 8.40878C8.80222 8.41388 8.80258 8.41388 8.80376 8.76384C8.80457 9.00613 8.80101 9.24849 8.80552 9.49068C8.80868 9.66006 8.7388 9.73643 8.57338 9.7331C8.30583 9.7277 8.03806 9.72853 7.77047 9.73264C7.60828 9.73513 7.53427 9.66516 7.53817 9.49169C7.54462 9.20468 7.54411 8.91735 7.53935 8.63028C7.53668 8.46935 7.60342 8.40367 7.7567 8.40781C7.97241 8.41365 8.18837 8.40898 8.42945 8.40878ZM9.19666 9.17937C9.19833 8.40798 9.19835 8.40489 9.92216 8.41009C10.5017 8.41425 10.4584 8.32121 10.4581 8.9744C10.458 9.15381 10.4573 9.33323 10.4575 9.51264C10.4576 9.66813 10.3875 9.73929 10.2342 9.73562C10.0013 9.73005 9.76706 9.72057 9.53534 9.73903C9.28069 9.75932 9.15666 9.67376 9.19559 9.39407C9.20416 9.33257 9.19672 9.26866 9.19666 9.17937ZM9.21556 6.77269C9.59152 6.61509 9.96935 6.70108 10.3425 6.69871C10.4523 6.69801 10.4572 6.81679 10.4576 6.90656C10.4589 7.19314 10.4553 7.47975 10.455 7.76634C10.4549 7.92913 10.3906 8.01402 10.222 8.00976C9.95498 8.00302 9.68766 8.00439 9.42061 8.00951C9.25285 8.01272 9.19156 7.93204 9.19611 7.76367C9.20484 7.44156 9.2041 7.11918 9.21556 6.77269ZM7.53938 7.03034C7.51022 6.76627 7.59353 6.65881 7.84042 6.67883C8.08898 6.69898 8.34026 6.68841 8.59017 6.68277C8.74648 6.67924 8.80689 6.753 8.80485 6.90922C8.80123 7.18696 8.80099 7.46484 8.80538 7.74255C8.80817 7.91871 8.74323 8.01012 8.56301 8.0063C8.30448 8.00083 8.04559 8.00014 7.78715 8.00787C7.59286 8.01368 7.52959 7.91867 7.53746 7.72844C7.54671 7.50484 7.53946 7.28049 7.53938 7.03034ZM8.2851 14.7092C8.62047 14.4919 8.76087 14.5684 8.76175 14.9431C8.76215 15.1126 8.7553 15.2823 8.76243 15.4515C8.77036 15.6395 8.66841 15.67 8.51865 15.6702C8.36987 15.6705 8.26481 15.642 8.27 15.4545C8.27666 15.2139 8.27624 14.9731 8.2851 14.7092ZM5.72529 13.6239H5.97368V13.2798H5.72529V13.6239ZM5.84259 12.4624L5.29751 13.0647H6.44286L5.84259 12.4624Z" stroke="#0A9786"/>
</svg>
