<svg width="34" height="34" viewBox="0 0 34 34" fill="none" xmlns="http://www.w3.org/2000/svg">
<path d="M20.9627 22.8788C19.8381 23.5542 18.7417 24.2019 17.658 24.8715C17.2288 25.1367 16.8486 25.153 16.4035 24.8837C13.4468 23.0952 10.4811 21.3227 7.51386 19.5531C7.02928 19.2641 6.81346 18.8657 6.81656 18.279C6.83202 15.3512 6.82535 12.4233 6.83144 9.4954C6.83199 9.23431 6.77887 8.95489 6.9983 8.6866C7.54121 8.9478 8.05435 9.26755 8.54173 9.63142C8.78869 9.81579 8.74695 10.1081 8.74644 10.3749C8.74226 12.5468 8.86729 14.7193 8.7419 16.8902C8.69842 17.6431 8.97052 18.1253 9.61738 18.4934C11.6781 19.6658 13.7326 20.853 15.7117 22.1719C16.5566 22.7349 17.3834 22.7692 18.2373 22.2128C20.3169 20.8576 22.4624 19.6198 24.6089 18.3853C25.0914 18.1078 25.2898 17.746 25.2847 17.1743C25.2651 14.9472 25.2874 12.7196 25.2692 10.4924C25.2643 9.89932 25.4478 9.50009 25.9945 9.2708C26.3411 9.12537 26.6597 8.90752 26.984 8.72597C27.2281 8.94379 27.2023 9.2037 27.2025 9.44833C27.2056 12.4121 27.1989 15.376 27.2107 18.3397C27.213 18.9083 26.9913 19.2769 26.5204 19.5549C24.6729 20.6455 22.8365 21.7564 20.9627 22.8788Z" fill="#0A9786"/>
<path d="M10.128 9.42296C10.1175 8.97952 10.3416 8.7492 10.6429 8.56838C12.574 7.40946 14.5084 6.25629 16.432 5.08385C16.8598 4.8231 17.2164 4.85917 17.6348 5.11601C19.51 6.26714 21.3971 7.39751 23.2865 8.52364C23.6825 8.75969 23.8996 9.05995 23.8986 9.5547C23.8938 11.8894 23.9085 14.2242 23.9102 16.559C23.9106 17.0978 23.735 17.2468 23.2027 17.2181C22.9445 17.2042 22.685 17.1957 22.4269 17.2065C21.887 17.2291 21.752 17.1113 21.7511 16.531C21.7481 14.626 21.7398 12.7209 21.7646 10.8163C21.7713 10.3005 21.5944 9.97856 21.1682 9.73166C19.9603 9.03205 18.76 8.31757 17.5694 7.58669C17.1814 7.34849 16.8483 7.34515 16.4606 7.58445C15.2868 8.30895 14.1038 9.01764 12.9144 9.71408C12.466 9.97661 12.3083 10.3546 12.3143 10.8686C12.3354 12.6654 12.3445 14.4624 12.3482 16.2593C12.35 17.0846 12.1909 17.2296 11.3949 17.1938C11.2567 17.1876 11.1184 17.187 10.9801 17.1828C10.3055 17.1622 10.1325 16.9851 10.1308 16.2649C10.1256 14.0005 10.1277 11.7362 10.128 9.42296Z" fill="#0A9786"/>
<path d="M18.6747 1.82191C21.5283 3.52566 24.3485 5.21027 27.269 6.95483C26.6668 7.44996 26.1714 7.76616 25.634 7.99588C25.3445 8.11967 25.0657 7.96572 24.803 7.80786C22.4545 6.39681 20.097 5.00166 17.7574 3.57484C17.2557 3.26884 16.8477 3.22767 16.3254 3.55018C14.1721 4.87959 11.9899 6.15811 9.82809 7.47278C8.49228 8.28516 8.30925 8.17696 6.92732 7.00549C6.96499 6.7973 7.14971 6.74716 7.29168 6.66213C10.3157 4.85104 13.3464 3.05173 16.3627 1.22687C16.8411 0.93745 17.2441 0.90751 17.6986 1.23865C17.9943 1.45413 18.3258 1.61656 18.6747 1.82191Z" fill="#0A9786"/>
<path d="M28.0569 31.8558C27.7903 32.2166 27.8158 32.7988 27.2119 32.7927C26.8857 32.7895 26.6548 32.7091 26.5082 32.3772C26.2638 31.8241 25.9884 31.2858 25.6241 30.7459C25.6241 31.3187 25.6142 31.8917 25.6275 32.4642C25.6366 32.86 25.4651 33.0002 25.0956 33C24.703 32.9998 24.6512 32.7754 24.6534 32.4453C24.6615 31.2253 24.6519 30.0051 24.6604 28.7851C24.6619 28.5727 24.5723 28.2687 24.9096 28.2327C25.2235 28.1992 25.5667 28.1049 25.7575 28.529C26.1301 29.3575 26.5216 30.1768 26.9094 30.9978C26.9687 31.1234 26.9992 31.2728 27.1946 31.3896C27.5956 30.5605 27.9944 29.7355 28.3937 28.9106C28.4712 28.7504 28.5407 28.5849 28.6309 28.4326C28.83 28.0962 29.1525 28.2004 29.4268 28.244C29.6887 28.2857 29.6097 28.5488 29.6104 28.7328C29.6135 29.612 29.6002 30.4912 29.6097 31.3702C29.6134 31.7084 29.5013 31.8547 29.1596 31.8515C28.8279 31.8484 28.6817 31.7207 28.7016 31.3746C28.7138 31.1622 28.7039 30.9483 28.6261 30.7046C28.4422 31.0764 28.2583 31.4481 28.0569 31.8558Z" fill="#0A9786"/>
<path d="M12.5558 30.1895C12.4263 29.5934 12.1219 29.2035 11.5838 29.0624C11.2617 28.9779 10.9703 29.0243 11.0276 29.4906C11.0821 29.9343 10.86 30.0416 10.4882 30.0535C10.0595 30.0672 10.0147 29.8078 10.0286 29.4642C10.0394 29.1954 10.0434 28.9247 10.0256 28.6566C10.004 28.3312 10.0496 28.0529 10.4059 27.931C10.0789 27.4007 9.73502 27.0245 9.09432 27.0926C8.64205 27.1407 8.37238 26.8685 8.33543 26.4018C8.26741 25.5427 8.25846 24.6815 8.33893 23.8221C8.38115 23.3712 8.63793 23.1531 9.06606 23.1525C10.1371 23.1508 11.2084 23.1413 12.2792 23.1599C12.7932 23.1689 13.0712 23.4695 13.0843 24.0136C13.1024 24.7672 13.1037 25.522 13.084 26.2756C13.0694 26.8357 12.8043 27.1316 12.2712 27.088C11.6212 27.0349 11.2961 27.4029 10.9941 27.9393C11.2429 28.0814 11.5005 28.0802 11.7467 28.1301C13.1806 28.4212 13.628 29.4712 13.5843 30.6543C13.5387 31.8877 12.6089 32.7927 11.4057 32.8089C9.75778 32.8312 10.0789 33.0543 10.0217 31.4222C10.0047 30.9372 10.1838 30.7789 10.6276 30.8189C10.9057 30.8439 11.0159 30.9541 11.0308 31.2489C11.0581 31.787 11.2011 31.8821 11.7072 31.7665C12.362 31.6169 12.68 31.049 12.5558 30.1895ZM11.6589 26.899C11.7952 26.8797 11.9309 26.8515 12.0678 26.8425C12.7076 26.8003 12.8187 26.6854 12.8206 26.0334C12.8225 25.3875 12.8179 24.7415 12.8202 24.0956C12.8219 23.6571 12.6341 23.4317 12.195 23.4323C11.211 23.4337 10.2269 23.4257 9.24297 23.4131C8.77225 23.4071 8.53623 23.6289 8.53881 24.1243C8.54228 24.7882 8.54159 25.4522 8.5377 26.116C8.5349 26.5943 8.72498 26.8739 9.21787 26.8386C9.71365 26.8031 10.081 27.0153 10.3654 27.4281C10.4509 27.5522 10.524 27.7138 10.7188 27.737C11.0395 27.5127 11.1831 27.0703 11.6589 26.899Z" fill="#0A9786"/>
<path d="M4.94452 29.548C4.94489 29.2253 4.93154 28.9553 4.94994 28.6877C4.96573 28.4579 4.83989 28.1347 5.18425 28.0623C5.50626 27.9947 5.8311 27.9804 6.06213 28.3316C6.51963 29.0271 6.99545 29.7097 7.46637 30.3957C7.56166 30.5345 7.66881 30.6645 7.85485 30.9098C7.85485 30.0588 7.86521 29.348 7.85062 28.6378C7.84296 28.2645 7.89991 28.0218 8.34572 28.0217C8.77473 28.0216 8.85966 28.2258 8.854 28.6182C8.83692 29.8015 8.85531 30.9854 8.84159 32.1688C8.83899 32.3931 8.98396 32.7495 8.65019 32.8064C8.30127 32.8658 7.91614 32.9505 7.64748 32.4977C7.18627 31.7205 6.66566 30.9813 6.16873 30.227C6.12399 30.1591 6.07016 30.0976 5.93077 29.9165C5.93077 30.4577 5.92281 30.8632 5.93306 31.2681C5.94292 31.6573 5.74391 31.7459 5.41048 31.7428C5.08316 31.7396 4.93796 31.619 4.9457 31.2693C4.958 30.7137 4.94618 30.1576 4.94452 29.548Z" fill="#0A9786"/>
<path d="M23.926 30.8107C23.7598 32.237 22.809 33.0718 21.6613 32.8366C20.66 32.6313 19.9426 31.6198 20.0373 30.5468C20.1439 29.3382 20.9473 28.4707 21.9604 28.4701C22.976 28.4696 23.7738 29.2787 23.9085 30.4474C23.9207 30.5535 23.9248 30.6607 23.926 30.8107ZM22.9762 30.6792C22.9206 30.5109 22.8916 30.3256 22.8041 30.1777C22.5863 29.8096 22.2539 29.6289 21.8376 29.701C21.4249 29.7725 21.1708 30.0534 21.049 30.4637C20.9239 30.8852 21.107 31.2021 21.4009 31.4547C21.9818 31.9541 22.6791 31.6387 22.9762 30.6792Z" fill="#0A9786"/>
<path d="M32.4842 28.4833C32.5546 28.9873 32.3996 29.22 31.9261 29.1578C31.7733 29.1377 31.6154 29.1544 31.4602 29.1614C31.166 29.1746 31.1585 29.3939 31.1547 29.6213C31.1509 29.8578 31.1794 30.0594 31.4729 30.0623C31.8183 30.0657 32.1638 30.0766 32.5092 30.0758C32.8148 30.0751 32.9972 30.1813 33 30.5419C33.0028 30.9051 32.8602 31.0717 32.5089 31.0659C32.1809 31.0604 31.8524 31.0849 31.5245 31.0782C31.17 31.0709 31.1568 31.3019 31.153 31.5782C31.1489 31.8722 31.2553 32.0164 31.5469 31.9999C31.702 31.9912 31.8586 32.0084 32.0131 31.9959C32.3673 31.9672 32.503 32.1239 32.506 32.4968C32.5092 32.8831 32.3435 33.0037 32.0045 32.994C31.5556 32.9813 31.1061 32.9822 30.657 32.9867C30.3397 32.9899 30.1818 32.8604 30.185 32.5081C30.1966 31.2334 30.1977 29.9585 30.1948 28.6837C30.194 28.3454 30.324 28.1973 30.6605 28.2102C31.1262 28.228 31.5932 28.2095 32.0596 28.2133C32.2295 28.2147 32.4176 28.1987 32.4842 28.4833Z" fill="#0A9786"/>
<path d="M1.61922 28.3027C2.32904 27.9283 3.07209 28.044 3.48476 28.5615C3.86128 29.0337 3.82494 29.6909 3.37257 30.3467C3.0519 30.8115 2.7179 31.2665 2.36542 31.76C2.59033 31.8943 2.81363 31.8186 3.02017 31.8205C3.84411 31.828 3.88382 31.8772 3.68529 32.8178C2.90945 32.8178 2.11968 32.8384 1.33166 32.8086C0.971207 32.795 0.881115 32.2542 1.17826 31.8083C1.57072 31.2194 1.99452 30.6532 2.39989 30.0735C2.51088 29.9148 2.6138 29.7481 2.70289 29.5753C2.79868 29.3895 2.75323 29.2241 2.57659 29.115C2.40352 29.0081 2.25083 29.042 2.11927 29.2045C2.02285 29.3235 2.00471 29.5268 1.82197 29.5519C1.60231 29.5821 1.35068 29.6445 1.18154 29.4619C1.02891 29.2972 1.15765 29.0877 1.22051 28.9059C1.29733 28.6838 1.41783 28.4885 1.61922 28.3027Z" fill="#0A9786"/>
<path d="M18.0861 30.9686C18.1086 30.1899 18.1317 29.4536 18.1131 28.7183C18.1025 28.3002 18.2825 28.2043 18.6431 28.2023C19.013 28.2004 19.1215 28.3632 19.118 28.7214C19.1059 29.9781 19.1062 31.2351 19.1146 32.4918C19.1169 32.8292 18.9918 32.9894 18.6629 32.9942C18.3596 32.9986 18.0945 32.9772 18.1179 32.5538C18.1346 32.2512 17.9796 32.1356 17.705 32.1432C17.4633 32.15 17.2212 32.1539 16.9796 32.1467C16.6991 32.1382 16.5073 32.2143 16.5119 32.5595C16.5174 32.9718 16.241 32.9947 15.942 32.9911C15.6189 32.9871 15.535 32.7926 15.5384 32.4991C15.5576 30.8617 15.3923 31.1771 16.7565 31.1282C17.1938 31.1125 17.6505 31.2674 18.0861 30.9686Z" fill="#0A9786"/>
<path d="M15.8589 15.8176C16.6044 15.8278 16.6052 15.8278 16.6075 16.5277C16.6091 17.0123 16.602 17.497 16.611 17.9814C16.6174 18.3201 16.4776 18.4729 16.1468 18.4662C15.6117 18.4554 15.0761 18.4571 14.5409 18.4653C14.2166 18.4703 14.0685 18.3303 14.0763 17.9834C14.0892 17.4094 14.0882 16.8347 14.0787 16.2606C14.0734 15.9387 14.2068 15.8073 14.5134 15.8156C14.9448 15.8273 15.3767 15.818 15.8589 15.8176Z" fill="#0A9786"/>
<path d="M17.3933 17.3587C17.3967 15.816 17.3967 15.8098 18.8443 15.8202C20.0034 15.8285 19.9168 15.6424 19.9162 16.9488C19.916 17.3076 19.9146 17.6665 19.9149 18.0253C19.9152 18.3363 19.7749 18.4786 19.4683 18.4712C19.0025 18.4601 18.5341 18.4411 18.0707 18.4781C17.5614 18.5186 17.3133 18.3475 17.3912 17.7881C17.4083 17.6651 17.3934 17.5373 17.3933 17.3587Z" fill="#0A9786"/>
<path d="M17.4311 12.5454C18.183 12.2302 18.9387 12.4022 19.6849 12.3974C19.9045 12.396 19.9144 12.6336 19.9152 12.8131C19.9179 13.3863 19.9105 13.9595 19.91 14.5327C19.9098 14.8583 19.7812 15.028 19.4439 15.0195C18.91 15.006 18.3753 15.0088 17.8412 15.019C17.5057 15.0254 17.3831 14.8641 17.3922 14.5273C17.4097 13.8831 17.4082 13.2384 17.4311 12.5454Z" fill="#0A9786"/>
<path d="M14.0788 13.0607C14.0204 12.5325 14.1871 12.3176 14.6808 12.3577C15.178 12.398 15.6805 12.3768 16.1803 12.3655C16.493 12.3585 16.6138 12.506 16.6097 12.8184C16.6025 13.3739 16.602 13.9297 16.6108 14.4851C16.6163 14.8374 16.4865 15.0202 16.126 15.0126C15.609 15.0017 15.0912 15.0003 14.5743 15.0157C14.1857 15.0274 14.0592 14.8373 14.0749 14.4569C14.0934 14.0097 14.0789 13.561 14.0788 13.0607Z" fill="#0A9786"/>
<path d="M15.5702 28.4184C16.2409 27.9837 16.5217 28.1369 16.5235 28.8862C16.5243 29.2251 16.5106 29.5646 16.5249 29.9029C16.5407 30.279 16.3368 30.34 16.0373 30.3405C15.7397 30.341 15.5296 30.284 15.54 29.909C15.5533 29.4279 15.5525 28.9463 15.5702 28.4184Z" fill="#0A9786"/>
<path fill-rule="evenodd" clip-rule="evenodd" d="M9.53981 25.2441V26.4199H11.8305V25.2441H11.7201V26.3052H11.0302V25.4735H10.3678V26.3052H9.65021V25.2441H9.53981ZM10.9474 26.2478H10.4506V25.5595H10.9474V26.2478Z" fill="#0A9786"/>
<path fill-rule="evenodd" clip-rule="evenodd" d="M12.1341 25.2441L11.4993 24.5844V23.9248H11.3889V24.4411L10.6852 23.7241L9.33282 25.2441H9.53981H9.65021H11.7201H11.8305H12.1341ZM9.59501 25.1293L10.6852 23.9248L11.8857 25.1293H9.59501Z" fill="#0A9786"/>
<path d="M9.53981 25.2441H9.33282L10.6852 23.7241L11.3889 24.4411V23.9248H11.4993V24.5844L12.1341 25.2441H11.8305M9.53981 25.2441V26.4199H11.8305V25.2441M9.53981 25.2441H9.65021M11.8305 25.2441H11.7201M9.65021 25.2441V26.3052H10.3678V25.4735H11.0302V26.3052H11.7201V25.2441M9.65021 25.2441H11.7201M20.9627 22.8788C19.8381 23.5542 18.7417 24.2019 17.658 24.8715C17.2288 25.1367 16.8486 25.153 16.4035 24.8837C13.4468 23.0952 10.4811 21.3227 7.51386 19.5531C7.02928 19.2641 6.81346 18.8657 6.81656 18.279C6.83202 15.3512 6.82535 12.4233 6.83144 9.4954C6.83199 9.23431 6.77887 8.95489 6.9983 8.6866C7.54121 8.9478 8.05435 9.26755 8.54173 9.63142C8.78869 9.81579 8.74695 10.1081 8.74644 10.3749C8.74226 12.5468 8.86729 14.7193 8.7419 16.8902C8.69842 17.6431 8.97052 18.1253 9.61738 18.4934C11.6781 19.6658 13.7326 20.853 15.7117 22.1719C16.5566 22.7349 17.3834 22.7692 18.2373 22.2128C20.3169 20.8576 22.4624 19.6198 24.6089 18.3853C25.0914 18.1078 25.2898 17.746 25.2847 17.1743C25.2651 14.9472 25.2874 12.7196 25.2692 10.4924C25.2643 9.89932 25.4478 9.50009 25.9945 9.2708C26.3411 9.12537 26.6597 8.90752 26.984 8.72597C27.2281 8.94379 27.2023 9.2037 27.2025 9.44833C27.2056 12.4121 27.1989 15.376 27.2107 18.3397C27.213 18.9083 26.9913 19.2769 26.5204 19.5549C24.6729 20.6455 22.8365 21.7564 20.9627 22.8788ZM10.128 9.42296C10.1175 8.97952 10.3416 8.7492 10.6429 8.56838C12.574 7.40946 14.5084 6.25629 16.432 5.08385C16.8598 4.8231 17.2164 4.85917 17.6348 5.11601C19.51 6.26714 21.3971 7.39751 23.2865 8.52364C23.6825 8.75969 23.8996 9.05995 23.8986 9.5547C23.8938 11.8894 23.9085 14.2242 23.9102 16.559C23.9106 17.0978 23.735 17.2468 23.2027 17.2181C22.9445 17.2042 22.685 17.1957 22.4269 17.2065C21.887 17.2291 21.752 17.1113 21.7511 16.531C21.7481 14.626 21.7398 12.7209 21.7646 10.8163C21.7713 10.3005 21.5944 9.97856 21.1682 9.73166C19.9603 9.03205 18.76 8.31757 17.5694 7.58669C17.1814 7.34849 16.8483 7.34515 16.4606 7.58445C15.2868 8.30895 14.1038 9.01764 12.9144 9.71408C12.466 9.97661 12.3083 10.3546 12.3143 10.8686C12.3354 12.6654 12.3445 14.4624 12.3482 16.2593C12.35 17.0846 12.1909 17.2296 11.3949 17.1938C11.2567 17.1876 11.1184 17.187 10.9801 17.1828C10.3055 17.1622 10.1325 16.9851 10.1308 16.2649C10.1256 14.0005 10.1277 11.7362 10.128 9.42296ZM18.6747 1.82191C21.5283 3.52566 24.3485 5.21027 27.269 6.95483C26.6668 7.44996 26.1714 7.76616 25.634 7.99588C25.3445 8.11967 25.0657 7.96572 24.803 7.80786C22.4545 6.39681 20.097 5.00166 17.7574 3.57484C17.2557 3.26884 16.8477 3.22767 16.3254 3.55018C14.1721 4.87959 11.9899 6.15811 9.82809 7.47278C8.49228 8.28516 8.30925 8.17696 6.92732 7.00549C6.96499 6.7973 7.14971 6.74716 7.29168 6.66213C10.3157 4.85104 13.3464 3.05173 16.3627 1.22687C16.8411 0.93745 17.2441 0.90751 17.6986 1.23865C17.9943 1.45413 18.3258 1.61656 18.6747 1.82191ZM28.0569 31.8558C27.7903 32.2166 27.8158 32.7988 27.2119 32.7927C26.8857 32.7895 26.6548 32.7091 26.5082 32.3772C26.2638 31.8241 25.9884 31.2858 25.6241 30.7459C25.6241 31.3187 25.6142 31.8917 25.6275 32.4642C25.6366 32.86 25.4651 33.0002 25.0956 33C24.703 32.9998 24.6512 32.7754 24.6534 32.4453C24.6615 31.2253 24.6519 30.0051 24.6604 28.7851C24.6619 28.5727 24.5723 28.2687 24.9096 28.2327C25.2235 28.1992 25.5667 28.1049 25.7575 28.529C26.1301 29.3575 26.5216 30.1768 26.9094 30.9978C26.9687 31.1234 26.9992 31.2728 27.1946 31.3896C27.5956 30.5605 27.9944 29.7355 28.3937 28.9106C28.4712 28.7504 28.5407 28.5849 28.6309 28.4326C28.83 28.0962 29.1525 28.2004 29.4268 28.244C29.6887 28.2857 29.6097 28.5488 29.6104 28.7328C29.6135 29.612 29.6002 30.4912 29.6097 31.3702C29.6134 31.7084 29.5013 31.8547 29.1596 31.8515C28.8279 31.8484 28.6817 31.7207 28.7016 31.3746C28.7138 31.1622 28.7039 30.9483 28.6261 30.7046C28.4422 31.0764 28.2583 31.4481 28.0569 31.8558ZM12.5558 30.1895C12.4263 29.5934 12.1219 29.2035 11.5838 29.0624C11.2617 28.9779 10.9703 29.0243 11.0276 29.4906C11.0821 29.9343 10.86 30.0416 10.4882 30.0535C10.0595 30.0672 10.0147 29.8078 10.0286 29.4642C10.0394 29.1954 10.0434 28.9247 10.0256 28.6566C10.004 28.3312 10.0496 28.0529 10.4059 27.931C10.0789 27.4007 9.73502 27.0245 9.09432 27.0926C8.64205 27.1407 8.37238 26.8685 8.33543 26.4018C8.26741 25.5427 8.25846 24.6815 8.33893 23.8221C8.38115 23.3712 8.63793 23.1531 9.06606 23.1525C10.1371 23.1508 11.2084 23.1413 12.2792 23.1599C12.7932 23.1689 13.0712 23.4695 13.0843 24.0136C13.1024 24.7672 13.1037 25.522 13.084 26.2756C13.0694 26.8357 12.8043 27.1316 12.2712 27.088C11.6212 27.0349 11.2961 27.4029 10.9941 27.9393C11.2429 28.0814 11.5005 28.0802 11.7467 28.1301C13.1806 28.4212 13.628 29.4712 13.5843 30.6543C13.5387 31.8877 12.6089 32.7927 11.4057 32.8089C9.75778 32.8312 10.0789 33.0543 10.0217 31.4222C10.0047 30.9372 10.1838 30.7789 10.6276 30.8189C10.9057 30.8439 11.0159 30.9541 11.0308 31.2489C11.0581 31.787 11.2011 31.8821 11.7072 31.7665C12.362 31.6169 12.68 31.049 12.5558 30.1895ZM11.6589 26.899C11.7952 26.8797 11.9309 26.8515 12.0678 26.8425C12.7076 26.8003 12.8187 26.6854 12.8206 26.0334C12.8225 25.3875 12.8179 24.7415 12.8202 24.0956C12.8219 23.6571 12.6341 23.4317 12.195 23.4323C11.211 23.4337 10.2269 23.4257 9.24297 23.4131C8.77225 23.4071 8.53623 23.6289 8.53881 24.1243C8.54228 24.7882 8.54159 25.4522 8.5377 26.116C8.5349 26.5943 8.72498 26.8739 9.21787 26.8386C9.71365 26.8031 10.081 27.0153 10.3654 27.4281C10.4509 27.5522 10.524 27.7138 10.7188 27.737C11.0395 27.5127 11.1831 27.0703 11.6589 26.899ZM4.94452 29.548C4.94489 29.2253 4.93154 28.9553 4.94994 28.6877C4.96573 28.4579 4.83989 28.1347 5.18425 28.0623C5.50626 27.9947 5.8311 27.9804 6.06213 28.3316C6.51963 29.0271 6.99545 29.7097 7.46637 30.3957C7.56166 30.5345 7.66881 30.6645 7.85485 30.9098C7.85485 30.0588 7.86521 29.348 7.85062 28.6378C7.84296 28.2645 7.89991 28.0218 8.34572 28.0217C8.77473 28.0216 8.85966 28.2258 8.854 28.6182C8.83692 29.8015 8.85531 30.9854 8.84159 32.1688C8.83899 32.3931 8.98396 32.7495 8.65019 32.8064C8.30127 32.8658 7.91614 32.9505 7.64748 32.4977C7.18627 31.7205 6.66566 30.9813 6.16873 30.227C6.12399 30.1591 6.07016 30.0976 5.93077 29.9165C5.93077 30.4577 5.92281 30.8632 5.93306 31.2681C5.94292 31.6573 5.74391 31.7459 5.41048 31.7428C5.08316 31.7396 4.93796 31.619 4.9457 31.2693C4.958 30.7137 4.94618 30.1576 4.94452 29.548ZM23.926 30.8107C23.7598 32.237 22.809 33.0718 21.6613 32.8366C20.66 32.6313 19.9426 31.6198 20.0373 30.5468C20.1439 29.3382 20.9473 28.4707 21.9604 28.4701C22.976 28.4696 23.7738 29.2787 23.9085 30.4474C23.9207 30.5535 23.9248 30.6607 23.926 30.8107ZM22.9762 30.6792C22.9206 30.5109 22.8916 30.3256 22.8041 30.1777C22.5863 29.8096 22.2539 29.6289 21.8376 29.701C21.4249 29.7725 21.1708 30.0534 21.049 30.4637C20.9239 30.8852 21.107 31.2021 21.4009 31.4547C21.9818 31.9541 22.6791 31.6387 22.9762 30.6792ZM32.4842 28.4833C32.5546 28.9873 32.3996 29.22 31.9261 29.1578C31.7733 29.1377 31.6154 29.1544 31.4602 29.1614C31.166 29.1746 31.1585 29.3939 31.1547 29.6213C31.1509 29.8578 31.1794 30.0594 31.4729 30.0623C31.8183 30.0657 32.1638 30.0766 32.5092 30.0758C32.8148 30.0751 32.9972 30.1813 33 30.5419C33.0028 30.9051 32.8602 31.0717 32.5089 31.0659C32.1809 31.0604 31.8524 31.0849 31.5245 31.0782C31.17 31.0709 31.1568 31.3019 31.153 31.5782C31.1489 31.8722 31.2553 32.0164 31.5469 31.9999C31.702 31.9912 31.8586 32.0084 32.0131 31.9959C32.3673 31.9672 32.503 32.1239 32.506 32.4968C32.5092 32.8831 32.3435 33.0037 32.0045 32.994C31.5556 32.9813 31.1061 32.9822 30.657 32.9867C30.3397 32.9899 30.1818 32.8604 30.185 32.5081C30.1966 31.2334 30.1977 29.9585 30.1948 28.6837C30.194 28.3454 30.324 28.1973 30.6605 28.2102C31.1262 28.228 31.5932 28.2095 32.0596 28.2133C32.2295 28.2147 32.4176 28.1987 32.4842 28.4833ZM1.61922 28.3027C2.32904 27.9283 3.07209 28.044 3.48476 28.5615C3.86128 29.0337 3.82494 29.6909 3.37257 30.3467C3.0519 30.8115 2.7179 31.2665 2.36542 31.76C2.59033 31.8943 2.81363 31.8186 3.02017 31.8205C3.84411 31.828 3.88382 31.8772 3.68529 32.8178C2.90945 32.8178 2.11968 32.8384 1.33166 32.8086C0.971207 32.795 0.881115 32.2542 1.17826 31.8083C1.57072 31.2194 1.99452 30.6532 2.39989 30.0735C2.51088 29.9148 2.6138 29.7481 2.70289 29.5753C2.79868 29.3895 2.75323 29.2241 2.57659 29.115C2.40352 29.0081 2.25083 29.042 2.11927 29.2045C2.02285 29.3235 2.00471 29.5268 1.82197 29.5519C1.60231 29.5821 1.35068 29.6445 1.18154 29.4619C1.02891 29.2972 1.15765 29.0877 1.22051 28.9059C1.29733 28.6838 1.41783 28.4885 1.61922 28.3027ZM18.0861 30.9686C18.1086 30.1899 18.1317 29.4536 18.1131 28.7183C18.1025 28.3002 18.2825 28.2043 18.6431 28.2023C19.013 28.2004 19.1215 28.3632 19.118 28.7214C19.1059 29.9781 19.1062 31.2351 19.1146 32.4918C19.1169 32.8292 18.9918 32.9894 18.6629 32.9942C18.3596 32.9986 18.0945 32.9772 18.1179 32.5538C18.1346 32.2512 17.9796 32.1356 17.705 32.1432C17.4633 32.15 17.2212 32.1539 16.9796 32.1467C16.6991 32.1382 16.5073 32.2143 16.5119 32.5595C16.5174 32.9718 16.241 32.9947 15.942 32.9911C15.6189 32.9871 15.535 32.7926 15.5384 32.4991C15.5576 30.8617 15.3923 31.1771 16.7565 31.1282C17.1938 31.1125 17.6505 31.2674 18.0861 30.9686ZM15.8589 15.8176C16.6044 15.8278 16.6052 15.8278 16.6075 16.5277C16.6091 17.0123 16.602 17.497 16.611 17.9814C16.6174 18.3201 16.4776 18.4729 16.1468 18.4662C15.6117 18.4554 15.0761 18.4571 14.5409 18.4653C14.2166 18.4703 14.0685 18.3303 14.0763 17.9834C14.0892 17.4094 14.0882 16.8347 14.0787 16.2606C14.0734 15.9387 14.2068 15.8073 14.5134 15.8156C14.9448 15.8273 15.3767 15.818 15.8589 15.8176ZM17.3933 17.3587C17.3967 15.816 17.3967 15.8098 18.8443 15.8202C20.0034 15.8285 19.9168 15.6424 19.9162 16.9488C19.916 17.3076 19.9146 17.6665 19.9149 18.0253C19.9152 18.3363 19.7749 18.4786 19.4683 18.4712C19.0025 18.4601 18.5341 18.4411 18.0707 18.4781C17.5614 18.5186 17.3133 18.3475 17.3912 17.7881C17.4083 17.6651 17.3934 17.5373 17.3933 17.3587ZM17.4311 12.5454C18.183 12.2302 18.9387 12.4022 19.6849 12.3974C19.9045 12.396 19.9144 12.6336 19.9152 12.8131C19.9179 13.3863 19.9105 13.9595 19.91 14.5327C19.9098 14.8583 19.7812 15.028 19.4439 15.0195C18.91 15.006 18.3753 15.0088 17.8412 15.019C17.5057 15.0254 17.3831 14.8641 17.3922 14.5273C17.4097 13.8831 17.4082 13.2384 17.4311 12.5454ZM14.0788 13.0607C14.0204 12.5325 14.1871 12.3176 14.6808 12.3577C15.178 12.398 15.6805 12.3768 16.1803 12.3655C16.493 12.3585 16.6138 12.506 16.6097 12.8184C16.6025 13.3739 16.602 13.9297 16.6108 14.4851C16.6163 14.8374 16.4865 15.0202 16.126 15.0126C15.609 15.0017 15.0912 15.0003 14.5743 15.0157C14.1857 15.0274 14.0592 14.8373 14.0749 14.4569C14.0934 14.0097 14.0789 13.561 14.0788 13.0607ZM15.5702 28.4184C16.2409 27.9837 16.5217 28.1369 16.5235 28.8862C16.5243 29.2251 16.5106 29.5646 16.5249 29.9029C16.5407 30.279 16.3368 30.34 16.0373 30.3405C15.7397 30.341 15.5296 30.284 15.54 29.909C15.5533 29.4279 15.5525 28.9463 15.5702 28.4184ZM10.4506 26.2478H10.9474V25.5595H10.4506V26.2478ZM10.6852 23.9248L9.59501 25.1293H11.8857L10.6852 23.9248Z" stroke="#0A9786"/>
</svg>
