<svg width="300" height="100" viewBox="0 0 300 100" fill="none" xmlns="http://www.w3.org/2000/svg">
<path d="M77.4204 90.8655C72.5661 93.6707 67.8337 96.3604 63.1556 99.1415C61.3029 100.243 59.6621 100.311 57.7405 99.1921C44.9779 91.7643 32.1766 84.4027 19.3685 77.0535C17.2767 75.8533 16.3452 74.1984 16.3585 71.7618C16.4253 59.6023 16.3965 47.4422 16.4228 35.2824C16.4251 34.1981 16.1958 33.0376 17.143 31.9233C19.4865 33.0082 21.7015 34.3361 23.8053 35.8473C24.8713 36.613 24.6911 37.8272 24.6889 38.9352C24.6709 47.9552 25.2105 56.9779 24.6693 65.9939C24.4816 69.1207 25.6561 71.1237 28.4483 72.6522C37.3436 77.5214 46.2119 82.4521 54.7545 87.9296C58.4013 90.2679 61.9704 90.4105 65.6564 88.0994C74.6329 82.4712 83.8938 77.3306 93.1593 72.2033C95.2421 71.0508 96.0982 69.5482 96.0765 67.1741C95.9918 57.9244 96.0879 48.6731 96.0093 39.4233C95.9884 36.9599 96.7805 35.3019 99.1401 34.3496C100.637 33.7456 102.012 32.8408 103.412 32.0868C104.465 32.9915 104.354 34.071 104.355 35.0869C104.368 47.396 104.339 59.7052 104.39 72.014C104.4 74.3757 103.443 75.9062 101.41 77.0609C93.4356 81.5904 85.5087 86.2042 77.4204 90.8655Z" fill="#0A9786"/>
<path d="M30.6527 34.9818C30.6073 33.1401 31.5744 32.1835 32.875 31.4326C41.2108 26.6194 49.5608 21.8301 57.8637 16.9608C59.7103 15.8779 61.2497 16.0277 63.0557 17.0944C71.1501 21.8752 79.2959 26.5698 87.4511 31.2467C89.1605 32.2271 90.0978 33.4741 90.0934 35.5289C90.0727 45.2254 90.1361 54.922 90.1437 64.6186C90.1454 66.8563 89.3873 67.4752 87.0894 67.356C85.9751 67.2983 84.8548 67.2629 83.7409 67.3078C81.4101 67.4018 80.8277 66.9126 80.8237 64.5023C80.8107 56.5909 80.7751 48.6787 80.8819 40.7685C80.9109 38.6263 80.1476 37.2892 78.3075 36.2638C73.0937 33.3583 67.9129 30.3909 62.7736 27.3555C61.0988 26.3662 59.6606 26.3523 57.9872 27.3462C52.9207 30.3551 47.8141 33.2984 42.68 36.1908C40.7446 37.2811 40.0639 38.8511 40.0899 40.9859C40.1809 48.448 40.22 55.9111 40.2363 63.3739C40.2438 66.8015 39.557 67.4039 36.1212 67.2552C35.5248 67.2294 34.9274 67.2268 34.3306 67.2093C31.4189 67.1239 30.672 66.3883 30.6648 63.3971C30.6422 53.9931 30.6512 44.5889 30.6527 34.9818Z" fill="#0A9786"/>
<path d="M67.5442 3.4135C79.8617 10.4894 92.0351 17.4859 104.642 24.7312C102.042 26.7876 99.9038 28.1008 97.5843 29.0549C96.3344 29.569 95.1312 28.9296 93.9971 28.274C83.8597 22.4137 73.6838 16.6195 63.585 10.6937C61.4192 9.42282 59.6581 9.2518 57.4033 10.5913C48.1088 16.1125 38.6891 21.4223 29.3579 26.8824C23.5918 30.2563 22.8018 29.8069 16.8367 24.9416C16.9993 24.077 17.7966 23.8688 18.4094 23.5156C31.4628 15.9939 44.5446 8.52112 57.5646 0.942206C59.6295 -0.259778 61.3691 -0.384122 63.3308 0.991148C64.6074 1.88607 66.0384 2.56067 67.5442 3.4135Z" fill="#0A9786"/>
<path d="M55.3898 61.5396C58.6079 61.582 58.611 61.582 58.6212 64.4889C58.6282 66.5013 58.5974 68.5144 58.6364 70.5262C58.6637 71.9331 58.0605 72.5674 56.6324 72.5398C54.3226 72.4949 52.0109 72.5018 49.7008 72.536C48.3006 72.5567 47.6617 71.9754 47.6954 70.5345C47.751 68.1506 47.7466 65.7639 47.7055 63.3795C47.6825 62.0427 48.2587 61.4971 49.582 61.5316C51.4441 61.58 53.3086 61.5412 55.3898 61.5396Z" fill="#0A9786"/>
<path d="M62.0132 67.9403C62.0276 61.533 62.0278 61.5073 68.2764 61.5505C73.2796 61.585 72.9058 60.8122 72.9031 66.2378C72.9024 67.7281 72.8961 69.2183 72.8977 70.7086C72.8991 72.0001 72.2934 72.5912 70.97 72.5607C68.9592 72.5144 66.9374 72.4357 64.937 72.589C62.7386 72.7576 61.6678 72.0469 62.004 69.7237C62.0779 69.2129 62.0137 68.682 62.0132 67.9403Z" fill="#0A9786"/>
<path d="M62.1764 47.9497C65.422 46.6406 68.6838 47.3549 71.9049 47.3352C72.8528 47.3293 72.8955 48.316 72.899 49.0616C72.9105 51.442 72.8787 53.8227 72.8766 56.2032C72.8754 57.5554 72.3205 58.2605 70.8647 58.2251C68.5598 58.1692 66.252 58.1805 63.9466 58.223C62.4983 58.2497 61.9691 57.5796 62.0085 56.181C62.0838 53.5055 62.0775 50.8277 62.1764 47.9497Z" fill="#0A9786"/>
<path d="M47.706 50.0896C47.4542 47.8962 48.1735 47.0036 50.3049 47.1699C52.4506 47.3372 54.6199 47.2495 56.7774 47.2026C58.1268 47.1733 58.6484 47.7859 58.6308 49.0836C58.5995 51.3905 58.5975 53.6986 58.6354 56.0054C58.6594 57.4687 58.0988 58.2279 56.543 58.1962C54.3111 58.1508 52.0761 58.145 49.8449 58.2092C48.1677 58.2575 47.6214 57.4683 47.6894 55.8883C47.7693 54.0309 47.7066 52.1674 47.706 50.0896Z" fill="#0A9786"/>
<path d="M257.845 68.9879C256.453 70.7993 256.586 73.7226 253.435 73.6924C251.733 73.676 250.528 73.2724 249.762 71.6061C248.487 68.8286 247.05 66.1255 245.148 63.4149C245.148 66.2909 245.097 69.1681 245.166 72.0425C245.214 74.03 244.319 74.7339 242.391 74.7331C240.342 74.7323 240.071 73.6055 240.083 71.9479C240.125 65.8218 240.075 59.6951 240.119 53.5691C240.127 52.5025 239.659 50.9761 241.42 50.7955C243.058 50.6274 244.849 50.1535 245.845 52.2833C247.79 56.4432 249.833 60.5573 251.856 64.6798C252.166 65.3102 252.325 66.0603 253.345 66.6467C255.437 62.4838 257.519 58.3411 259.602 54.1995C260.007 53.395 260.37 52.5636 260.84 51.7991C261.879 50.1099 263.562 50.6333 264.994 50.8522C266.361 51.0612 265.949 52.3828 265.952 53.3066C265.968 57.721 265.899 62.1359 265.949 66.5496C265.968 68.2477 265.383 68.9824 263.6 68.9663C261.868 68.9507 261.105 68.3095 261.209 66.5718C261.273 65.505 261.221 64.4312 260.815 63.2076C259.856 65.074 258.896 66.9405 257.845 68.9879Z" fill="#0A9786"/>
<path d="M176.948 60.6212C176.273 57.6279 174.684 55.6702 171.876 54.9615C170.195 54.5374 168.674 54.7703 168.973 57.1115C169.258 59.3393 168.099 59.8783 166.158 59.9379C163.921 60.0066 163.687 58.7041 163.759 56.9792C163.816 55.6293 163.837 54.2701 163.744 52.9239C163.631 51.2902 163.869 49.8924 165.729 49.2805C164.022 46.6178 162.227 44.7288 158.884 45.0707C156.524 45.312 155.116 43.9456 154.923 41.6021C154.568 37.2885 154.522 32.9641 154.942 28.6487C155.162 26.3845 156.502 25.2898 158.736 25.2864C164.326 25.2782 169.917 25.2302 175.505 25.3238C178.187 25.3687 179.638 26.878 179.707 29.6101C179.801 33.3942 179.808 37.1845 179.705 40.9682C179.629 43.7808 178.245 45.2667 175.463 45.0478C172.071 44.781 170.374 46.629 168.798 49.3221C170.097 50.0355 171.441 50.0295 172.726 50.2804C180.209 51.742 182.544 57.014 182.316 62.9548C182.078 69.1482 177.225 73.6921 170.946 73.7738C162.346 73.8857 164.022 75.0056 163.724 66.8106C163.635 64.3751 164.569 63.5803 166.886 63.7812C168.337 63.9071 168.912 64.4603 168.99 65.9407C169.132 68.6426 169.879 69.12 172.52 68.5395C175.937 67.7885 177.597 64.9365 176.948 60.6212ZM172.268 44.0985C172.979 44.0014 173.687 43.8601 174.401 43.8148C177.741 43.6031 178.32 43.0262 178.33 39.7524C178.341 36.5089 178.316 33.2654 178.328 30.022C178.337 27.8204 177.357 26.6884 175.066 26.6915C169.93 26.6985 164.795 26.6582 159.66 26.5951C157.203 26.5649 155.971 27.6787 155.985 30.1663C156.003 33.4998 155.999 36.8336 155.979 40.1671C155.964 42.5688 156.956 43.9728 159.529 43.7954C162.116 43.617 164.033 44.6823 165.517 46.7555C165.964 47.3786 166.345 48.1899 167.362 48.3062C169.035 47.1803 169.785 44.9587 172.268 44.0985Z" fill="#0A9786"/>
<path d="M137.227 57.4C137.229 55.7798 137.159 54.424 137.255 53.08C137.338 51.9263 136.681 50.3033 138.478 49.94C140.159 49.6003 141.854 49.5285 143.059 51.2921C145.447 54.7846 147.93 58.212 150.388 61.6563C150.885 62.3534 151.444 63.0062 152.415 64.2378C152.415 59.9648 152.469 56.3958 152.393 52.8297C152.353 50.955 152.65 49.7367 154.977 49.7361C157.216 49.7355 157.659 50.7607 157.63 52.7312C157.54 58.6729 157.636 64.6173 157.565 70.5594C157.551 71.6858 158.308 73.4755 156.566 73.761C154.745 74.0595 152.735 74.4847 151.333 72.2113C148.926 68.3085 146.209 64.5967 143.616 60.8092C143.382 60.4682 143.101 60.1597 142.374 59.2505C142.374 61.9678 142.332 64.0038 142.386 66.0372C142.437 67.9914 141.399 68.4364 139.659 68.4204C137.951 68.4047 137.193 67.7991 137.233 66.0432C137.297 63.2535 137.236 60.4608 137.227 57.4Z" fill="#0A9786"/>
<path d="M236.286 63.74C235.419 70.902 230.457 75.0937 224.467 73.9125C219.242 72.882 215.498 67.803 215.992 62.4149C216.549 56.3464 220.741 51.9903 226.029 51.9876C231.329 51.9848 235.492 56.0474 236.195 61.9159C236.259 62.4488 236.28 62.9868 236.286 63.74ZM231.33 63.08C231.039 62.235 230.888 61.3044 230.432 60.5618C229.295 58.7133 227.56 57.806 225.388 58.1681C223.234 58.5271 221.908 59.9378 221.272 61.9977C220.619 64.1145 221.575 65.7056 223.108 66.9739C226.14 69.4812 229.779 67.8977 231.33 63.08Z" fill="#0A9786"/>
<path d="M280.95 52.0536C281.317 54.5844 280.508 55.753 278.037 55.4405C277.24 55.3397 276.416 55.4236 275.606 55.4587C274.071 55.525 274.031 56.6259 274.012 57.7677C273.992 58.9554 274.141 59.9676 275.672 59.9821C277.475 59.9992 279.278 60.0542 281.08 60.0501C282.675 60.0465 283.627 60.5795 283.641 62.3903C283.656 64.2142 282.912 65.0506 281.079 65.0213C279.367 64.9939 277.653 65.1169 275.941 65.0832C274.091 65.0468 274.023 66.2068 274.002 67.594C273.981 69.0702 274.536 69.7941 276.058 69.7115C276.867 69.6675 277.685 69.7542 278.491 69.6912C280.34 69.547 281.048 70.334 281.064 72.2063C281.08 74.1463 280.215 74.7515 278.446 74.7032C276.103 74.6391 273.758 74.6435 271.414 74.6664C269.758 74.6825 268.934 74.0322 268.951 72.2632C269.011 65.8625 269.017 59.461 269.002 53.0599C268.998 51.3614 269.676 50.6178 271.432 50.6823C273.863 50.7717 276.3 50.6787 278.734 50.6982C279.621 50.7053 280.602 50.6245 280.95 52.0536Z" fill="#0A9786"/>
<path d="M119.873 51.1468C123.578 49.2669 127.455 49.848 129.609 52.4465C131.574 54.8174 131.384 58.1176 129.023 61.4103C127.35 63.7444 125.607 66.0286 123.767 68.5068C124.941 69.1814 126.107 68.8011 127.184 68.8107C131.484 68.8484 131.692 69.0952 130.655 73.8184C126.607 73.8184 122.485 73.9216 118.372 73.7722C116.491 73.7039 116.021 70.9881 117.572 68.7494C119.62 65.7926 121.832 62.9494 123.947 60.0387C124.526 59.2417 125.064 58.4045 125.529 57.5367C126.028 56.6037 125.791 55.7737 124.869 55.2258C123.966 54.6889 123.169 54.8591 122.483 55.6748C121.98 56.2727 121.885 57.2935 120.931 57.4196C119.785 57.5711 118.472 57.8846 117.589 56.9678C116.792 56.1403 117.464 55.0884 117.792 54.1757C118.193 53.0605 118.822 52.0799 119.873 51.1468Z" fill="#0A9786"/>
<path d="M205.81 64.5333C205.927 60.6232 206.048 56.9258 205.95 53.234C205.895 51.1343 206.834 50.6527 208.717 50.6432C210.647 50.6333 211.213 51.4506 211.195 53.2495C211.132 59.5597 211.134 65.8712 211.177 72.1817C211.189 73.8758 210.536 74.6803 208.82 74.7041C207.237 74.7261 205.854 74.6189 205.976 72.4929C206.063 70.9733 205.254 70.3929 203.821 70.4313C202.56 70.4653 201.296 70.485 200.035 70.4485C198.571 70.4061 197.57 70.788 197.594 72.5213C197.623 74.5915 196.181 74.7069 194.62 74.6884C192.934 74.6685 192.496 73.6919 192.514 72.2182C192.614 63.9966 191.751 65.5801 198.871 65.3345C201.153 65.2558 203.536 66.0335 205.81 64.5333Z" fill="#0A9786"/>
<path d="M192.68 51.7275C196.18 49.5451 197.646 50.3141 197.655 54.0766C197.659 55.7786 197.588 57.4833 197.662 59.1818C197.745 61.0701 196.681 61.3764 195.118 61.3789C193.565 61.3813 192.468 61.0954 192.522 59.2126C192.592 56.7964 192.587 54.3782 192.68 51.7275Z" fill="#0A9786"/>
<path fill-rule="evenodd" clip-rule="evenodd" d="M161.209 35.7889V41.6931H173.163V35.7889H172.587V41.1171H168.986V36.941H165.53V41.1171H161.785V35.7889H161.209ZM168.554 40.8291H165.962V37.373H168.554V40.8291Z" fill="#0A9786"/>
<path fill-rule="evenodd" clip-rule="evenodd" d="M174.748 35.7889L171.435 32.4769V29.1648H170.859V31.7568L167.186 28.1567L160.128 35.7889H161.209H161.785H172.587H173.163H174.748ZM161.497 35.2129L167.186 29.1648L173.451 35.2129H161.497Z" fill="#0A9786"/>
</svg>
