<svg width="64" height="64" viewBox="0 0 64 64" fill="none" xmlns="http://www.w3.org/2000/svg">
<path d="M44.2663 58.1541C40.7472 59.9494 37.3165 61.6709 33.9252 63.4508C32.5821 64.1557 31.3926 64.1989 29.9995 63.4832C20.7474 58.7293 11.4672 54.018 2.18211 49.3144C0.665743 48.5463 -0.00958708 47.4872 0.000102744 45.9277C0.048483 38.1457 0.0276266 30.3632 0.0466796 22.581C0.0483837 21.887 -0.11784 21.1443 0.568814 20.4312C2.26771 21.1254 3.8734 21.9753 5.39854 22.9425C6.17131 23.4325 6.04071 24.2096 6.0391 24.9187C6.02603 30.6916 6.41728 36.4661 6.0249 42.2363C5.88884 44.2375 6.74029 45.5194 8.76447 46.4976C15.213 49.6139 21.642 52.7695 27.8349 56.2752C30.4786 57.7717 33.0659 57.8629 35.7381 56.3838C42.2455 52.7818 48.9591 49.4918 55.676 46.2103C57.1859 45.4727 57.8066 44.5111 57.7908 42.9916C57.7294 37.0718 57.7991 31.151 57.7421 25.2311C57.727 23.6546 58.3012 22.5934 60.0117 21.984C61.0966 21.5974 62.0934 21.0184 63.1083 20.5358C63.8722 21.1148 63.7913 21.8056 63.792 22.4558C63.8015 30.3336 63.7806 38.2115 63.8178 46.0892C63.8249 47.6006 63.1312 48.5802 61.6575 49.3192C55.8763 52.2181 50.1298 55.1709 44.2663 58.1541Z" fill="#0A9786"/>
<path d="M10.3623 22.3884C10.3293 21.2098 11.0304 20.5976 11.9733 20.117C18.0162 17.0365 24.0695 13.9714 30.0886 10.855C31.4273 10.162 32.5432 10.2578 33.8525 10.9405C39.7205 14.0002 45.6256 17.0048 51.5377 19.998C52.7769 20.6255 53.4564 21.4236 53.4532 22.7386C53.4382 28.9444 53.4841 35.1502 53.4896 41.356C53.4909 42.7881 52.9413 43.1842 51.2755 43.108C50.4676 43.071 49.6555 43.0483 48.848 43.0771C47.1583 43.1372 46.7361 42.8242 46.7332 41.2816C46.7238 36.2183 46.698 31.1544 46.7754 26.092C46.7964 24.721 46.243 23.8652 44.9091 23.209C41.1294 21.3494 37.3736 19.4503 33.648 17.5076C32.4338 16.8745 31.3913 16.8656 30.1781 17.5017C26.5052 19.4274 22.8032 21.3111 19.0813 23.1622C17.6783 23.86 17.1848 24.8648 17.2037 26.2311C17.2696 31.0068 17.298 35.7832 17.3098 40.5594C17.3152 42.7531 16.8174 43.1386 14.3266 43.0434C13.8942 43.0269 13.4612 43.0253 13.0285 43.0141C10.9177 42.9594 10.3763 42.4886 10.371 40.5743C10.3546 34.5557 10.3612 28.537 10.3623 22.3884Z" fill="#0A9786"/>
<path d="M37.1066 2.18464C46.036 6.71324 54.861 11.1909 64 15.828C62.1156 17.1441 60.5653 17.9845 58.8838 18.5951C57.9777 18.9241 57.1055 18.5149 56.2833 18.0953C48.9343 14.3448 41.5574 10.6365 34.2364 6.84394C32.6663 6.0306 31.3896 5.92115 29.7551 6.7784C23.0171 10.312 16.1884 13.7103 9.42379 17.2047C5.24374 19.364 4.67102 19.0764 0.34668 15.9626C0.464544 15.4093 1.04257 15.276 1.48684 15.05C10.9498 10.2361 20.4333 5.45351 29.872 0.603012C31.3689 -0.166258 32.63 -0.245838 34.0522 0.634335C34.9776 1.20709 36.0149 1.63883 37.1066 2.18464Z" fill="#0A9786"/>
<path d="M28.2956 39.3852C30.6285 39.4124 30.6307 39.4124 30.6381 41.2728C30.6432 42.5608 30.6209 43.8492 30.6491 45.1367C30.6689 46.0371 30.2316 46.4431 29.1963 46.4254C27.5219 46.3967 25.8461 46.4011 24.1714 46.4229C23.1563 46.4362 22.6931 46.0642 22.7175 45.142C22.7579 43.6163 22.7547 42.0888 22.7249 40.5628C22.7082 39.7073 23.1259 39.3581 24.0852 39.3801C25.4352 39.4112 26.7868 39.3863 28.2956 39.3852Z" fill="#0A9786"/>
<path d="M33.0968 43.4818C33.1073 39.3811 33.1074 39.3647 37.6373 39.3923C41.2643 39.4144 40.9933 38.9198 40.9914 42.3922C40.9909 43.346 40.9863 44.2997 40.9875 45.2535C40.9885 46.0801 40.5494 46.4584 39.59 46.4389C38.1323 46.4093 36.6666 46.3589 35.2164 46.457C33.6227 46.5649 32.8465 46.11 33.0902 44.6232C33.1438 44.2962 33.0972 43.9565 33.0968 43.4818Z" fill="#0A9786"/>
<path d="M33.2152 30.6879C35.5681 29.8501 37.9327 30.3073 40.2678 30.2946C40.955 30.2909 40.9859 30.9224 40.9885 31.3996C40.9968 32.9231 40.9737 34.4466 40.9722 35.9702C40.9714 36.8356 40.5691 37.2868 39.5137 37.2642C37.8428 37.2284 36.1698 37.2357 34.4985 37.2629C33.4486 37.28 33.065 36.8511 33.0935 35.956C33.1481 34.2437 33.1435 32.5299 33.2152 30.6879Z" fill="#0A9786"/>
<path d="M22.7249 32.0574C22.5424 30.6536 23.0638 30.0823 24.6089 30.1887C26.1645 30.2958 27.7371 30.2397 29.3011 30.2097C30.2794 30.1909 30.6575 30.583 30.6447 31.4135C30.622 32.89 30.6206 34.3672 30.648 35.8435C30.6655 36.78 30.259 37.2659 29.1312 37.2456C27.5132 37.2165 25.893 37.2128 24.2755 37.2539C23.0596 37.2848 22.6636 36.7797 22.7128 35.7685C22.7708 34.5798 22.7254 33.3872 22.7249 32.0574Z" fill="#0A9786"/>
</svg>
